<?xml version="1.0" encoding="utf-8" standalone="no"?>
<!DOCTYPE svg PUBLIC "-//W3C//DTD SVG 1.1//EN"
  "http://www.w3.org/Graphics/SVG/1.1/DTD/svg11.dtd">
<svg xmlns:xlink="http://www.w3.org/1999/xlink" width="460.8pt" height="345.6pt" viewBox="0 0 460.8 345.6" xmlns="http://www.w3.org/2000/svg" version="1.1">
 <metadata>
  <rdf:RDF xmlns:dc="http://purl.org/dc/elements/1.1/" xmlns:cc="http://creativecommons.org/ns#" xmlns:rdf="http://www.w3.org/1999/02/22-rdf-syntax-ns#">
   <cc:Work>
    <dc:type rdf:resource="http://purl.org/dc/dcmitype/StillImage"/>
    <dc:date>2024-05-30T13:07:08.582818</dc:date>
    <dc:format>image/svg+xml</dc:format>
    <dc:creator>
     <cc:Agent>
      <dc:title>Matplotlib v3.8.3, https://matplotlib.org/</dc:title>
     </cc:Agent>
    </dc:creator>
   </cc:Work>
  </rdf:RDF>
 </metadata>
 <defs>
  <style type="text/css">*{stroke-linejoin: round; stroke-linecap: butt}</style>
 </defs>
 <g id="figure_1">
  <g id="patch_1">
   <path d="M 0 345.6 
L 460.8 345.6 
L 460.8 0 
L 0 0 
z
" style="fill: #ffffff"/>
  </g>
  <g id="axes_1">
   <g id="patch_2">
    <path d="M 57.6 307.584 
L 414.72 307.584 
L 414.72 41.472 
L 57.6 41.472 
z
" style="fill: #ffffff"/>
   </g>
   <g id="matplotlib.axis_1">
    <g id="xtick_1">
     <g id="line2d_1">
      <defs>
       <path id="m37fc4b477f" d="M 0 0 
L 0 3.5 
" style="stroke: #000000; stroke-width: 0.8"/>
      </defs>
      <g>
       <use xlink:href="#m37fc4b477f" x="73.832727" y="307.584" style="stroke: #000000; stroke-width: 0.8"/>
      </g>
     </g>
     <g id="text_1">
      <!-- 0 -->
      <g transform="translate(70.651477 322.182437) scale(0.1 -0.1)">
       <defs>
        <path id="DejaVuSans-30" d="M 2034 4250 
Q 1547 4250 1301 3770 
Q 1056 3291 1056 2328 
Q 1056 1369 1301 889 
Q 1547 409 2034 409 
Q 2525 409 2770 889 
Q 3016 1369 3016 2328 
Q 3016 3291 2770 3770 
Q 2525 4250 2034 4250 
z
M 2034 4750 
Q 2819 4750 3233 4129 
Q 3647 3509 3647 2328 
Q 3647 1150 3233 529 
Q 2819 -91 2034 -91 
Q 1250 -91 836 529 
Q 422 1150 422 2328 
Q 422 3509 836 4129 
Q 1250 4750 2034 4750 
z
" transform="scale(0.015625)"/>
       </defs>
       <use xlink:href="#DejaVuSans-30"/>
      </g>
     </g>
    </g>
    <g id="xtick_2">
     <g id="line2d_2">
      <g>
       <use xlink:href="#m37fc4b477f" x="138.828632" y="307.584" style="stroke: #000000; stroke-width: 0.8"/>
      </g>
     </g>
     <g id="text_2">
      <!-- 200 -->
      <g transform="translate(129.284882 322.182437) scale(0.1 -0.1)">
       <defs>
        <path id="DejaVuSans-32" d="M 1228 531 
L 3431 531 
L 3431 0 
L 469 0 
L 469 531 
Q 828 903 1448 1529 
Q 2069 2156 2228 2338 
Q 2531 2678 2651 2914 
Q 2772 3150 2772 3378 
Q 2772 3750 2511 3984 
Q 2250 4219 1831 4219 
Q 1534 4219 1204 4116 
Q 875 4013 500 3803 
L 500 4441 
Q 881 4594 1212 4672 
Q 1544 4750 1819 4750 
Q 2544 4750 2975 4387 
Q 3406 4025 3406 3419 
Q 3406 3131 3298 2873 
Q 3191 2616 2906 2266 
Q 2828 2175 2409 1742 
Q 1991 1309 1228 531 
z
" transform="scale(0.015625)"/>
       </defs>
       <use xlink:href="#DejaVuSans-32"/>
       <use xlink:href="#DejaVuSans-30" x="63.623047"/>
       <use xlink:href="#DejaVuSans-30" x="127.246094"/>
      </g>
     </g>
    </g>
    <g id="xtick_3">
     <g id="line2d_3">
      <g>
       <use xlink:href="#m37fc4b477f" x="203.824537" y="307.584" style="stroke: #000000; stroke-width: 0.8"/>
      </g>
     </g>
     <g id="text_3">
      <!-- 400 -->
      <g transform="translate(194.280787 322.182437) scale(0.1 -0.1)">
       <defs>
        <path id="DejaVuSans-34" d="M 2419 4116 
L 825 1625 
L 2419 1625 
L 2419 4116 
z
M 2253 4666 
L 3047 4666 
L 3047 1625 
L 3713 1625 
L 3713 1100 
L 3047 1100 
L 3047 0 
L 2419 0 
L 2419 1100 
L 313 1100 
L 313 1709 
L 2253 4666 
z
" transform="scale(0.015625)"/>
       </defs>
       <use xlink:href="#DejaVuSans-34"/>
       <use xlink:href="#DejaVuSans-30" x="63.623047"/>
       <use xlink:href="#DejaVuSans-30" x="127.246094"/>
      </g>
     </g>
    </g>
    <g id="xtick_4">
     <g id="line2d_4">
      <g>
       <use xlink:href="#m37fc4b477f" x="268.820442" y="307.584" style="stroke: #000000; stroke-width: 0.8"/>
      </g>
     </g>
     <g id="text_4">
      <!-- 600 -->
      <g transform="translate(259.276692 322.182437) scale(0.1 -0.1)">
       <defs>
        <path id="DejaVuSans-36" d="M 2113 2584 
Q 1688 2584 1439 2293 
Q 1191 2003 1191 1497 
Q 1191 994 1439 701 
Q 1688 409 2113 409 
Q 2538 409 2786 701 
Q 3034 994 3034 1497 
Q 3034 2003 2786 2293 
Q 2538 2584 2113 2584 
z
M 3366 4563 
L 3366 3988 
Q 3128 4100 2886 4159 
Q 2644 4219 2406 4219 
Q 1781 4219 1451 3797 
Q 1122 3375 1075 2522 
Q 1259 2794 1537 2939 
Q 1816 3084 2150 3084 
Q 2853 3084 3261 2657 
Q 3669 2231 3669 1497 
Q 3669 778 3244 343 
Q 2819 -91 2113 -91 
Q 1303 -91 875 529 
Q 447 1150 447 2328 
Q 447 3434 972 4092 
Q 1497 4750 2381 4750 
Q 2619 4750 2861 4703 
Q 3103 4656 3366 4563 
z
" transform="scale(0.015625)"/>
       </defs>
       <use xlink:href="#DejaVuSans-36"/>
       <use xlink:href="#DejaVuSans-30" x="63.623047"/>
       <use xlink:href="#DejaVuSans-30" x="127.246094"/>
      </g>
     </g>
    </g>
    <g id="xtick_5">
     <g id="line2d_5">
      <g>
       <use xlink:href="#m37fc4b477f" x="333.816347" y="307.584" style="stroke: #000000; stroke-width: 0.8"/>
      </g>
     </g>
     <g id="text_5">
      <!-- 800 -->
      <g transform="translate(324.272597 322.182437) scale(0.1 -0.1)">
       <defs>
        <path id="DejaVuSans-38" d="M 2034 2216 
Q 1584 2216 1326 1975 
Q 1069 1734 1069 1313 
Q 1069 891 1326 650 
Q 1584 409 2034 409 
Q 2484 409 2743 651 
Q 3003 894 3003 1313 
Q 3003 1734 2745 1975 
Q 2488 2216 2034 2216 
z
M 1403 2484 
Q 997 2584 770 2862 
Q 544 3141 544 3541 
Q 544 4100 942 4425 
Q 1341 4750 2034 4750 
Q 2731 4750 3128 4425 
Q 3525 4100 3525 3541 
Q 3525 3141 3298 2862 
Q 3072 2584 2669 2484 
Q 3125 2378 3379 2068 
Q 3634 1759 3634 1313 
Q 3634 634 3220 271 
Q 2806 -91 2034 -91 
Q 1263 -91 848 271 
Q 434 634 434 1313 
Q 434 1759 690 2068 
Q 947 2378 1403 2484 
z
M 1172 3481 
Q 1172 3119 1398 2916 
Q 1625 2713 2034 2713 
Q 2441 2713 2670 2916 
Q 2900 3119 2900 3481 
Q 2900 3844 2670 4047 
Q 2441 4250 2034 4250 
Q 1625 4250 1398 4047 
Q 1172 3844 1172 3481 
z
" transform="scale(0.015625)"/>
       </defs>
       <use xlink:href="#DejaVuSans-38"/>
       <use xlink:href="#DejaVuSans-30" x="63.623047"/>
       <use xlink:href="#DejaVuSans-30" x="127.246094"/>
      </g>
     </g>
    </g>
    <g id="xtick_6">
     <g id="line2d_6">
      <g>
       <use xlink:href="#m37fc4b477f" x="398.812252" y="307.584" style="stroke: #000000; stroke-width: 0.8"/>
      </g>
     </g>
     <g id="text_6">
      <!-- 1000 -->
      <g transform="translate(386.087252 322.182437) scale(0.1 -0.1)">
       <defs>
        <path id="DejaVuSans-31" d="M 794 531 
L 1825 531 
L 1825 4091 
L 703 3866 
L 703 4441 
L 1819 4666 
L 2450 4666 
L 2450 531 
L 3481 531 
L 3481 0 
L 794 0 
L 794 531 
z
" transform="scale(0.015625)"/>
       </defs>
       <use xlink:href="#DejaVuSans-31"/>
       <use xlink:href="#DejaVuSans-30" x="63.623047"/>
       <use xlink:href="#DejaVuSans-30" x="127.246094"/>
       <use xlink:href="#DejaVuSans-30" x="190.869141"/>
      </g>
     </g>
    </g>
   </g>
   <g id="matplotlib.axis_2">
    <g id="ytick_1">
     <g id="line2d_7">
      <defs>
       <path id="m2b65f98469" d="M 0 0 
L -3.5 0 
" style="stroke: #000000; stroke-width: 0.8"/>
      </defs>
      <g>
       <use xlink:href="#m2b65f98469" x="57.6" y="286.673118" style="stroke: #000000; stroke-width: 0.8"/>
      </g>
     </g>
     <g id="text_7">
      <!-- 100000 -->
      <g transform="translate(12.425 290.472337) scale(0.1 -0.1)">
       <use xlink:href="#DejaVuSans-31"/>
       <use xlink:href="#DejaVuSans-30" x="63.623047"/>
       <use xlink:href="#DejaVuSans-30" x="127.246094"/>
       <use xlink:href="#DejaVuSans-30" x="190.869141"/>
       <use xlink:href="#DejaVuSans-30" x="254.492188"/>
       <use xlink:href="#DejaVuSans-30" x="318.115234"/>
      </g>
     </g>
    </g>
    <g id="ytick_2">
     <g id="line2d_8">
      <g>
       <use xlink:href="#m2b65f98469" x="57.6" y="245.456499" style="stroke: #000000; stroke-width: 0.8"/>
      </g>
     </g>
     <g id="text_8">
      <!-- 200000 -->
      <g transform="translate(12.425 249.255717) scale(0.1 -0.1)">
       <use xlink:href="#DejaVuSans-32"/>
       <use xlink:href="#DejaVuSans-30" x="63.623047"/>
       <use xlink:href="#DejaVuSans-30" x="127.246094"/>
       <use xlink:href="#DejaVuSans-30" x="190.869141"/>
       <use xlink:href="#DejaVuSans-30" x="254.492188"/>
       <use xlink:href="#DejaVuSans-30" x="318.115234"/>
      </g>
     </g>
    </g>
    <g id="ytick_3">
     <g id="line2d_9">
      <g>
       <use xlink:href="#m2b65f98469" x="57.6" y="204.239879" style="stroke: #000000; stroke-width: 0.8"/>
      </g>
     </g>
     <g id="text_9">
      <!-- 300000 -->
      <g transform="translate(12.425 208.039098) scale(0.1 -0.1)">
       <defs>
        <path id="DejaVuSans-33" d="M 2597 2516 
Q 3050 2419 3304 2112 
Q 3559 1806 3559 1356 
Q 3559 666 3084 287 
Q 2609 -91 1734 -91 
Q 1441 -91 1130 -33 
Q 819 25 488 141 
L 488 750 
Q 750 597 1062 519 
Q 1375 441 1716 441 
Q 2309 441 2620 675 
Q 2931 909 2931 1356 
Q 2931 1769 2642 2001 
Q 2353 2234 1838 2234 
L 1294 2234 
L 1294 2753 
L 1863 2753 
Q 2328 2753 2575 2939 
Q 2822 3125 2822 3475 
Q 2822 3834 2567 4026 
Q 2313 4219 1838 4219 
Q 1578 4219 1281 4162 
Q 984 4106 628 3988 
L 628 4550 
Q 988 4650 1302 4700 
Q 1616 4750 1894 4750 
Q 2613 4750 3031 4423 
Q 3450 4097 3450 3541 
Q 3450 3153 3228 2886 
Q 3006 2619 2597 2516 
z
" transform="scale(0.015625)"/>
       </defs>
       <use xlink:href="#DejaVuSans-33"/>
       <use xlink:href="#DejaVuSans-30" x="63.623047"/>
       <use xlink:href="#DejaVuSans-30" x="127.246094"/>
       <use xlink:href="#DejaVuSans-30" x="190.869141"/>
       <use xlink:href="#DejaVuSans-30" x="254.492188"/>
       <use xlink:href="#DejaVuSans-30" x="318.115234"/>
      </g>
     </g>
    </g>
    <g id="ytick_4">
     <g id="line2d_10">
      <g>
       <use xlink:href="#m2b65f98469" x="57.6" y="163.023259" style="stroke: #000000; stroke-width: 0.8"/>
      </g>
     </g>
     <g id="text_10">
      <!-- 400000 -->
      <g transform="translate(12.425 166.822478) scale(0.1 -0.1)">
       <use xlink:href="#DejaVuSans-34"/>
       <use xlink:href="#DejaVuSans-30" x="63.623047"/>
       <use xlink:href="#DejaVuSans-30" x="127.246094"/>
       <use xlink:href="#DejaVuSans-30" x="190.869141"/>
       <use xlink:href="#DejaVuSans-30" x="254.492188"/>
       <use xlink:href="#DejaVuSans-30" x="318.115234"/>
      </g>
     </g>
    </g>
    <g id="ytick_5">
     <g id="line2d_11">
      <g>
       <use xlink:href="#m2b65f98469" x="57.6" y="121.80664" style="stroke: #000000; stroke-width: 0.8"/>
      </g>
     </g>
     <g id="text_11">
      <!-- 500000 -->
      <g transform="translate(12.425 125.605858) scale(0.1 -0.1)">
       <defs>
        <path id="DejaVuSans-35" d="M 691 4666 
L 3169 4666 
L 3169 4134 
L 1269 4134 
L 1269 2991 
Q 1406 3038 1543 3061 
Q 1681 3084 1819 3084 
Q 2600 3084 3056 2656 
Q 3513 2228 3513 1497 
Q 3513 744 3044 326 
Q 2575 -91 1722 -91 
Q 1428 -91 1123 -41 
Q 819 9 494 109 
L 494 744 
Q 775 591 1075 516 
Q 1375 441 1709 441 
Q 2250 441 2565 725 
Q 2881 1009 2881 1497 
Q 2881 1984 2565 2268 
Q 2250 2553 1709 2553 
Q 1456 2553 1204 2497 
Q 953 2441 691 2322 
L 691 4666 
z
" transform="scale(0.015625)"/>
       </defs>
       <use xlink:href="#DejaVuSans-35"/>
       <use xlink:href="#DejaVuSans-30" x="63.623047"/>
       <use xlink:href="#DejaVuSans-30" x="127.246094"/>
       <use xlink:href="#DejaVuSans-30" x="190.869141"/>
       <use xlink:href="#DejaVuSans-30" x="254.492188"/>
       <use xlink:href="#DejaVuSans-30" x="318.115234"/>
      </g>
     </g>
    </g>
    <g id="ytick_6">
     <g id="line2d_12">
      <g>
       <use xlink:href="#m2b65f98469" x="57.6" y="80.59002" style="stroke: #000000; stroke-width: 0.8"/>
      </g>
     </g>
     <g id="text_12">
      <!-- 600000 -->
      <g transform="translate(12.425 84.389239) scale(0.1 -0.1)">
       <use xlink:href="#DejaVuSans-36"/>
       <use xlink:href="#DejaVuSans-30" x="63.623047"/>
       <use xlink:href="#DejaVuSans-30" x="127.246094"/>
       <use xlink:href="#DejaVuSans-30" x="190.869141"/>
       <use xlink:href="#DejaVuSans-30" x="254.492188"/>
       <use xlink:href="#DejaVuSans-30" x="318.115234"/>
      </g>
     </g>
    </g>
   </g>
   <g id="line2d_13">
    <path d="M 73.832727 126.468075 
L 90.731663 129.830144 
L 102.105946 132.351708 
L 114.130188 135.2475 
L 129.079247 139.090434 
L 164.826994 148.38199 
L 177.176216 151.293737 
L 188.5505 153.746956 
L 199.599803 155.904775 
L 210.974087 157.896441 
L 222.67335 159.716002 
L 235.022572 161.407016 
L 248.021753 162.960322 
L 261.995872 164.404461 
L 277.26991 165.755392 
L 297.74362 167.320653 
L 317.892351 168.637135 
L 339.665979 169.83136 
L 365.339361 171.0095 
L 397.187355 172.241818 
L 398.487273 172.287931 
L 398.487273 172.287931 
" clip-path="url(#pa06f2d94ad)" style="fill: none; stroke: #1f77b4; stroke-width: 1.5; stroke-linecap: square"/>
   </g>
   <g id="line2d_14">
    <path d="M 73.832727 126.389505 
L 102.430925 134.805713 
L 116.080066 139.341227 
L 132.004062 144.578416 
L 142.078428 147.656029 
L 151.502834 150.306118 
L 160.92724 152.72091 
L 170.351646 154.903688 
L 180.101032 156.92952 
L 190.175397 158.791602 
L 200.899722 160.540029 
L 212.274005 162.168232 
L 225.273186 163.796804 
L 241.197183 165.562554 
L 261.670893 167.593981 
L 286.369337 169.818551 
L 308.467944 171.590734 
L 329.591613 173.059558 
L 351.365242 174.348097 
L 377.688583 175.668225 
L 398.487273 176.643382 
L 398.487273 176.643382 
" clip-path="url(#pa06f2d94ad)" style="fill: none; stroke: #ff7f0e; stroke-width: 1.5; stroke-linecap: square"/>
   </g>
   <g id="line2d_15">
    <path d="M 73.832727 120.554888 
L 91.056642 125.548826 
L 97.231253 127.633512 
L 102.755905 129.720571 
L 108.280557 132.051314 
L 113.805209 134.636246 
L 119.97982 137.7842 
L 139.803571 148.11426 
L 145.328223 150.602378 
L 150.852875 152.835215 
L 156.377527 154.823079 
L 162.227158 156.686688 
L 168.401769 158.418259 
L 175.226339 160.090017 
L 182.375889 161.60865 
L 190.175397 163.03493 
L 198.624865 164.351066 
L 208.049271 165.58518 
L 220.398493 166.953903 
L 252.896446 170.243272 
L 294.493825 174.106661 
L 315.942473 176.543565 
L 355.589975 181.02764 
L 378.338542 183.359437 
L 397.512334 185.110322 
L 398.487273 185.193138 
L 398.487273 185.193138 
" clip-path="url(#pa06f2d94ad)" style="fill: none; stroke: #2ca02c; stroke-width: 1.5; stroke-linecap: square"/>
   </g>
   <g id="line2d_16">
    <path d="M 73.832727 127.091133 
L 87.481867 130.685359 
L 94.306437 132.758017 
L 100.806028 134.960446 
L 106.980639 137.278476 
L 113.15525 139.826637 
L 119.65484 142.758123 
L 126.47941 146.094181 
L 135.578837 150.829161 
L 144.028305 155.159176 
L 148.902998 157.410927 
L 153.452711 159.258432 
L 157.677445 160.740214 
L 162.227158 162.109698 
L 167.75181 163.52582 
L 174.2514 164.950986 
L 182.050909 166.428005 
L 193.425192 168.32997 
L 205.449435 170.12635 
L 223.323309 172.539762 
L 281.494644 180.076702 
L 306.193088 182.949532 
L 341.615856 186.814685 
L 372.488911 190.01464 
L 396.862375 192.297215 
L 398.487273 192.442942 
L 398.487273 192.442942 
" clip-path="url(#pa06f2d94ad)" style="fill: none; stroke: #d62728; stroke-width: 1.5; stroke-linecap: square"/>
   </g>
   <g id="line2d_17">
    <path d="M 73.832727 122.400286 
L 91.056642 128.874163 
L 95.606355 130.9486 
L 99.831089 133.107373 
L 104.055823 135.511811 
L 108.605536 138.375775 
L 113.805209 141.941397 
L 128.104308 151.94381 
L 132.329042 154.534497 
L 136.553776 156.869359 
L 140.778509 158.948257 
L 145.003243 160.782173 
L 149.227977 162.38632 
L 153.77769 163.876734 
L 158.652383 165.227851 
L 163.852056 166.433415 
L 170.676626 167.773517 
L 182.375889 169.808893 
L 193.100213 171.529225 
L 212.598984 174.272892 
L 269.470401 182.361467 
L 325.0419 190.228148 
L 345.190631 192.883888 
L 362.414545 194.931224 
L 379.63846 196.755157 
L 397.187355 198.390629 
L 398.487273 198.503184 
L 398.487273 198.503184 
" clip-path="url(#pa06f2d94ad)" style="fill: none; stroke: #9467bd; stroke-width: 1.5; stroke-linecap: square"/>
   </g>
   <g id="line2d_18">
    <path d="M 73.832727 127.485592 
L 80.332318 131.982438 
L 83.582113 134.515494 
L 86.181949 136.807146 
L 88.781785 139.372797 
L 91.706601 142.568457 
L 100.806028 152.79851 
L 103.730844 155.551117 
L 106.655659 157.986469 
L 109.580475 160.138471 
L 112.505291 162.0206 
L 115.430106 163.636918 
L 118.354922 164.994503 
L 121.604717 166.233739 
L 125.504472 167.452974 
L 130.704144 168.821485 
L 137.853694 170.438761 
L 153.127731 173.840363 
L 161.252219 175.908624 
L 199.274824 185.8349 
L 215.198821 190.097495 
L 227.873022 193.242929 
L 241.522162 196.400673 
L 257.771138 199.92578 
L 274.020115 203.237584 
L 287.669255 205.786038 
L 303.593251 208.521209 
L 316.592432 210.530213 
L 330.566552 212.462686 
L 345.190631 214.258037 
L 360.139689 215.867982 
L 376.063686 217.355969 
L 392.962621 218.710742 
L 398.487273 219.105671 
L 398.487273 219.105671 
" clip-path="url(#pa06f2d94ad)" style="fill: none; stroke: #8c564b; stroke-width: 1.5; stroke-linecap: square"/>
   </g>
   <g id="line2d_19">
    <path d="M 73.832727 117.982174 
L 75.132645 120.489491 
L 76.432563 122.457853 
L 78.057461 124.411211 
L 85.53199 132.6995 
L 87.481867 135.39642 
L 89.431744 138.495569 
L 91.706601 142.588091 
L 98.531171 155.380416 
L 100.481048 158.378829 
L 102.430925 160.993943 
L 104.380803 163.209317 
L 106.33068 165.076578 
L 108.605536 166.913253 
L 111.205373 168.69539 
L 121.279738 174.988991 
L 128.429287 179.27372 
L 135.578837 183.269169 
L 143.378346 187.3722 
L 153.127731 192.246056 
L 160.92724 195.900036 
L 168.726749 199.308577 
L 176.526257 202.483763 
L 184.650745 205.545663 
L 193.100213 208.486024 
L 201.87466 211.297057 
L 210.974087 213.971689 
L 219.748534 216.318412 
L 228.522981 218.428657 
L 237.947387 220.458216 
L 248.671712 222.531783 
L 259.721016 224.444 
L 270.770319 226.121451 
L 284.09448 227.911363 
L 299.368518 229.737935 
L 315.292514 231.418889 
L 332.841409 233.032132 
L 354.940016 234.840813 
L 375.738706 236.316825 
L 398.487273 237.736402 
L 398.487273 237.736402 
" clip-path="url(#pa06f2d94ad)" style="fill: none; stroke: #e377c2; stroke-width: 1.5; stroke-linecap: square"/>
   </g>
   <g id="line2d_20">
    <path d="M 73.832727 98.678658 
L 75.132645 116.582735 
L 77.082523 144.337622 
L 77.732482 150.729841 
L 78.382441 154.853793 
L 79.0324 157.980953 
L 80.982277 164.269156 
L 81.957215 166.436801 
L 82.932154 168.098561 
L 84.882031 170.736139 
L 93.006519 181.124608 
L 97.556233 187.551243 
L 107.305618 200.465901 
L 110.555414 204.351265 
L 115.430106 209.669674 
L 118.354922 212.673722 
L 123.229615 217.411398 
L 128.104308 221.852793 
L 133.62896 226.504947 
L 141.428468 232.299227 
L 150.202916 237.950974 
L 153.77769 240.052671 
L 159.302342 243.086115 
L 162.552138 244.795432 
L 170.676626 248.71335 
L 186.600622 255.410406 
L 196.674988 259.182112 
L 210.324128 263.810109 
L 225.273186 268.284872 
L 235.347551 270.993688 
L 242.82208 272.871217 
L 252.571466 275.157533 
L 274.345094 279.610465 
L 287.019296 281.88609 
L 307.493006 285.141644 
L 321.467125 287.136276 
L 335.116265 288.940272 
L 351.365242 290.915807 
L 363.389484 292.245841 
L 377.363604 293.644547 
L 398.487273 295.488 
L 398.487273 295.488 
" clip-path="url(#pa06f2d94ad)" style="fill: none; stroke: #7f7f7f; stroke-width: 1.5; stroke-linecap: square"/>
   </g>
   <g id="line2d_21">
    <path d="M 73.832727 53.568 
L 74.482686 64.400616 
L 75.132645 78.583034 
L 77.407502 138.726901 
L 78.057461 148.700658 
L 78.70742 154.808697 
L 79.682359 160.349146 
L 80.332318 162.857111 
L 81.632236 166.060445 
L 82.282195 167.315291 
L 83.257133 168.77459 
L 84.232072 170.22366 
L 87.156888 173.34012 
L 89.431744 175.705309 
L 89.756724 175.788302 
L 91.381622 177.445274 
L 91.706601 177.547795 
L 93.331499 179.09656 
L 93.981458 179.573311 
L 94.631417 180.213474 
L 95.931335 181.271258 
L 96.581294 181.93037 
L 97.231253 182.464129 
L 99.50611 184.582648 
L 106.980639 191.472806 
L 107.955577 192.326347 
L 109.580475 193.805103 
L 111.205373 195.221779 
L 112.83027 196.668915 
L 113.805209 197.461449 
L 115.430106 198.857823 
L 125.179492 206.654289 
L 125.504472 206.815381 
L 126.47941 207.636407 
L 126.80439 207.797042 
L 127.779328 208.594386 
L 128.754267 209.287848 
L 130.379165 210.507787 
L 131.679083 211.429796 
L 139.478591 217.092824 
L 139.803571 217.021588 
L 140.45353 217.733938 
L 141.428468 218.339444 
L 141.753448 218.765555 
L 142.078428 218.585847 
L 142.403407 218.831715 
L 142.728387 219.403093 
L 143.053366 219.386032 
L 143.378346 219.537483 
L 143.703325 220.042605 
L 144.353284 219.759177 
L 144.678264 220.36096 
L 145.003243 220.653586 
L 145.328223 220.561952 
L 145.653202 220.75195 
L 145.978182 221.319102 
L 146.303161 221.487464 
L 146.628141 221.504944 
L 146.95312 221.69305 
L 147.2781 222.135612 
L 147.603079 221.634599 
L 147.928059 221.691933 
L 148.253038 221.974169 
L 148.578018 222.535312 
L 148.902998 222.328067 
L 149.552957 222.630765 
L 149.877936 222.824939 
L 150.202916 223.182001 
L 150.852875 223.441092 
L 151.177854 223.579124 
L 151.502834 223.586702 
L 151.827813 223.896262 
L 152.802752 224.236842 
L 153.127731 224.499817 
L 153.452711 224.295077 
L 153.77769 224.413493 
L 154.10267 224.892667 
L 154.427649 225.086104 
L 154.752629 224.78832 
L 155.727568 225.433832 
L 156.052547 225.481691 
L 157.027486 225.909591 
L 176.526257 233.236253 
L 176.851237 233.282364 
L 177.826175 233.706421 
L 178.151155 233.756392 
L 179.126093 234.171565 
L 179.776052 234.387691 
L 181.40095 234.941902 
L 182.375889 235.309403 
L 184.000786 235.866826 
L 184.975725 236.216359 
L 192.450254 238.762845 
L 193.425192 239.127396 
L 195.05009 239.657153 
L 196.025029 240.055717 
L 196.674988 240.267422 
L 199.274824 241.199311 
L 199.924783 241.432446 
L 200.574742 241.52938 
L 200.899722 241.976538 
L 201.224701 240.077777 
L 201.549681 239.69107 
L 201.87466 241.848358 
L 202.524619 239.983374 
L 202.849599 241.368231 
L 203.174578 241.79911 
L 203.499558 241.763949 
L 203.824537 242.145007 
L 204.149517 242.025175 
L 204.474496 242.533125 
L 204.799476 242.471554 
L 205.124455 242.532995 
L 205.449435 243.027178 
L 205.774414 242.762903 
L 206.099394 243.12058 
L 206.424373 242.918395 
L 206.749353 242.973362 
L 207.074333 243.429392 
L 207.399312 243.23699 
L 207.724292 243.663142 
L 208.049271 243.511774 
L 208.374251 243.719957 
L 209.349189 243.963295 
L 211.949025 244.905244 
L 212.598984 244.916777 
L 212.923964 245.264408 
L 213.248943 245.038241 
L 213.573923 245.462374 
L 213.898903 244.820339 
L 214.223882 244.55518 
L 214.548862 245.58232 
L 215.198821 244.900138 
L 215.84878 246.023402 
L 216.173759 245.583402 
L 216.823718 246.292103 
L 217.473677 246.343387 
L 217.798657 246.661412 
L 218.123636 246.423695 
L 218.448616 246.74515 
L 218.773595 246.499547 
L 219.098575 246.577554 
L 219.423554 247.061044 
L 219.748534 247.032666 
L 221.048452 247.610385 
L 221.373432 247.499743 
L 221.698411 247.698222 
L 222.023391 247.675033 
L 222.998329 248.150348 
L 223.323309 248.057386 
L 224.298247 248.51886 
L 224.623227 248.325401 
L 224.948206 248.483272 
L 225.273186 248.795505 
L 225.598165 248.323869 
L 225.923145 248.692926 
L 226.248124 248.611719 
L 226.573104 248.702578 
L 227.223063 249.240672 
L 227.548043 248.724005 
L 227.873022 249.086462 
L 228.522981 249.099033 
L 228.847961 249.50061 
L 229.17294 249.606179 
L 229.49792 249.453856 
L 230.472858 249.878906 
L 230.797838 249.767229 
L 231.122817 250.009987 
L 231.447797 249.878663 
L 232.422735 250.314926 
L 232.747715 250.140454 
L 233.072695 250.331238 
L 233.722654 250.491134 
L 234.372613 250.735413 
L 234.697592 250.577939 
L 235.022572 250.681778 
L 235.347551 250.934435 
L 235.672531 251.026338 
L 235.99751 250.876082 
L 236.972449 251.265672 
L 237.297428 251.264681 
L 237.622408 251.390245 
L 238.272367 251.488685 
L 238.922326 251.699989 
L 239.247305 251.674968 
L 239.897265 251.83343 
L 240.872203 252.144731 
L 241.197183 252.073781 
L 242.172121 252.42691 
L 242.497101 252.368995 
L 243.472039 252.690642 
L 243.797019 252.68434 
L 244.771957 252.966307 
L 245.746896 253.136965 
L 246.721835 253.399045 
L 247.371794 253.536178 
L 248.346732 253.703275 
L 249.321671 253.991995 
L 249.64665 253.99908 
L 250.621589 254.279888 
L 251.596527 254.448888 
L 252.571466 254.719709 
L 253.546405 254.882186 
L 254.521343 255.17211 
L 254.846323 255.167743 
L 255.821261 255.473623 
L 256.146241 255.456613 
L 257.121179 255.772829 
L 257.446159 255.751297 
L 258.421097 256.071059 
L 258.746077 256.05141 
L 259.721016 256.368688 
L 260.045995 256.354948 
L 261.020934 256.667401 
L 261.345913 256.66005 
L 262.320852 256.967206 
L 262.645831 256.965413 
L 263.62077 257.2683 
L 263.945749 257.269126 
L 264.920688 257.570148 
L 265.245667 257.57133 
L 266.220606 257.871882 
L 266.545586 257.872185 
L 267.520524 258.17337 
L 267.845504 258.171296 
L 268.820442 258.474376 
L 269.145422 258.469342 
L 270.12036 258.774256 
L 270.44534 258.766636 
L 271.420278 259.072392 
L 271.745258 259.063543 
L 272.720197 259.368394 
L 273.045176 259.360339 
L 274.020115 259.662189 
L 274.345094 259.656814 
L 275.320033 259.953735 
L 275.645012 259.953358 
L 276.619951 260.242562 
L 276.94493 260.250528 
L 277.919869 260.528221 
L 278.569828 260.671306 
L 279.544767 260.848691 
L 280.194726 260.993348 
L 282.469582 261.641033 
L 282.794562 261.453822 
L 283.119541 261.539282 
L 283.444521 261.878592 
L 283.7695 261.367337 
L 284.09448 262.057882 
L 284.419459 260.079169 
L 284.744439 259.304244 
L 285.069419 261.228906 
L 285.394398 261.163195 
L 285.719378 260.662756 
L 286.044357 260.658957 
L 286.369337 261.273207 
L 286.694316 262.329629 
L 287.019296 260.760293 
L 287.344275 260.765321 
L 287.669255 262.681675 
L 288.319214 257.758591 
L 288.969173 262.207018 
L 289.294152 261.307195 
L 289.619132 261.087708 
L 290.269091 262.249136 
L 290.59407 262.131779 
L 290.91905 262.151265 
L 291.244029 262.773419 
L 291.569009 262.495908 
L 291.893989 262.596117 
L 292.218968 262.950115 
L 292.543948 262.792815 
L 292.868927 263.069943 
L 293.518886 263.165631 
L 294.168845 263.427946 
L 294.493825 263.359941 
L 295.143784 263.576801 
L 295.468763 263.714327 
L 295.793743 263.538248 
L 296.118722 263.774785 
L 296.443702 263.597615 
L 296.768681 263.671171 
L 297.093661 263.996127 
L 297.41864 263.87262 
L 297.74362 264.189226 
L 298.0686 263.905869 
L 298.393579 264.213733 
L 298.718559 264.104661 
L 299.043538 264.179766 
L 299.368518 264.459477 
L 299.693497 264.055992 
L 300.018477 264.345943 
L 300.993415 264.417862 
L 301.318395 264.713216 
L 301.643374 264.378053 
L 301.968354 264.781639 
L 302.293333 264.263737 
L 302.618313 264.289102 
L 302.943292 265.071473 
L 303.268272 264.851948 
L 303.593251 265.137471 
L 304.24321 265.223731 
L 304.56819 265.400084 
L 304.89317 265.332382 
L 305.218149 265.561382 
L 305.543129 265.48406 
L 305.868108 265.728437 
L 306.193088 265.479056 
L 306.518067 265.715729 
L 307.168026 265.61876 
L 307.493006 266.00773 
L 307.817985 265.897743 
L 308.142965 266.123948 
L 308.792924 266.101007 
L 309.117903 266.336768 
L 309.442883 266.244397 
L 309.767862 266.541864 
L 310.092842 266.287301 
L 310.417821 266.589162 
L 310.742801 266.318876 
L 311.39276 266.647487 
L 311.71774 266.578571 
L 312.042719 266.924377 
L 312.367699 266.682831 
L 312.692678 266.917127 
L 313.342637 266.902573 
L 313.667617 267.196444 
L 313.992596 267.018173 
L 314.317576 267.244777 
L 314.967535 267.308139 
L 315.617494 267.487307 
L 316.917412 267.820085 
L 317.242391 267.933934 
L 317.892351 267.869669 
L 318.21733 268.226601 
L 318.54231 267.878233 
L 318.867289 268.241461 
L 319.192269 267.768912 
L 319.517248 267.750117 
L 319.842228 268.322086 
L 320.167207 268.101394 
L 320.492187 268.232764 
L 320.817166 268.660422 
L 321.142146 268.37128 
L 321.467125 268.66911 
L 322.442064 268.931311 
L 322.767043 268.713287 
L 323.092023 269.080489 
L 323.417002 268.769242 
L 323.741982 268.878954 
L 324.066962 269.214267 
L 324.391941 269.185565 
L 324.716921 269.377246 
L 325.0419 269.181889 
L 325.691859 269.500551 
L 326.666798 269.581544 
L 326.991777 269.842596 
L 327.316757 269.723823 
L 327.641736 269.908624 
L 327.966716 269.747878 
L 328.616675 270.090008 
L 328.941654 269.993258 
L 329.591613 270.249035 
L 329.916593 270.209922 
L 330.241572 270.474523 
L 330.566552 270.120435 
L 330.891532 270.527024 
L 331.216511 269.978594 
L 331.541491 269.996105 
L 331.86647 270.605888 
L 332.19145 270.142862 
L 332.516429 270.515038 
L 332.841409 270.243612 
L 333.491368 270.392358 
L 333.816347 270.696687 
L 334.141327 270.390603 
L 334.466306 270.701488 
L 334.791286 270.343967 
L 335.116265 270.66188 
L 335.441245 270.354983 
L 335.766224 270.450418 
L 336.091204 271.230387 
L 336.741163 271.120365 
L 337.066143 271.418671 
L 337.391122 270.869547 
L 337.716102 271.156905 
L 338.041081 271.024412 
L 339.01602 271.417449 
L 339.340999 271.390521 
L 339.665979 271.605411 
L 339.990958 271.41966 
L 340.315938 271.63658 
L 340.640917 271.484461 
L 340.965897 271.670774 
L 341.290876 271.585535 
L 341.615856 271.74661 
L 341.940835 271.730767 
L 342.915774 271.974288 
L 343.240753 271.930074 
L 343.565733 272.050387 
L 343.890713 272.001806 
L 344.865651 272.256615 
L 345.190631 272.249479 
L 345.51561 272.381096 
L 345.84059 272.301695 
L 346.815528 272.560562 
L 347.140508 272.502478 
L 347.465487 272.636068 
L 347.790467 272.578884 
L 348.765405 272.855169 
L 349.090385 272.754168 
L 350.065324 273.024353 
L 350.390303 272.951661 
L 350.715283 273.076974 
L 351.690221 273.181083 
L 352.015201 273.300966 
L 352.34018 273.228303 
L 353.315119 273.518425 
L 353.640098 273.392878 
L 354.615037 273.714378 
L 354.940016 273.592584 
L 355.914955 273.880707 
L 356.239934 273.828187 
L 356.564914 273.959898 
L 356.889894 273.936775 
L 357.864832 274.192089 
L 358.189812 274.092698 
L 358.839771 274.347975 
L 359.16475 274.465833 
L 359.48973 274.133831 
L 359.814709 274.224249 
L 360.139689 274.640635 
L 360.464668 274.25664 
L 360.789648 274.811022 
L 361.114627 274.452712 
L 361.439607 274.789699 
L 361.764586 274.53566 
L 362.089566 274.831914 
L 362.414545 274.509959 
L 363.714464 275.048 
L 364.689402 275.144379 
L 365.339361 275.338818 
L 366.3143 275.426677 
L 366.639279 275.683939 
L 366.964259 275.502879 
L 367.289238 275.829095 
L 367.614218 275.22224 
L 367.939197 275.526911 
L 368.264177 275.629079 
L 368.589156 275.43727 
L 368.914136 276.004983 
L 369.239115 275.063649 
L 369.564095 275.152174 
L 370.214054 275.866154 
L 370.539034 274.984611 
L 370.864013 275.599795 
L 371.188993 275.75146 
L 371.513972 275.762186 
L 372.163931 276.226054 
L 372.488911 275.521506 
L 372.81389 275.767804 
L 373.13887 276.185194 
L 373.463849 276.230786 
L 373.788829 276.136651 
L 374.113808 276.421106 
L 374.438788 275.943201 
L 374.763767 276.061564 
L 375.088747 276.558982 
L 375.413726 276.650893 
L 375.738706 276.213715 
L 376.063686 276.517658 
L 376.388665 276.316476 
L 376.713645 276.388238 
L 377.038624 276.752798 
L 377.363604 276.853964 
L 377.688583 276.528441 
L 378.013563 276.774391 
L 378.338542 276.6594 
L 378.663522 276.737655 
L 379.313481 277.062384 
L 379.63846 276.797126 
L 379.96344 277.026479 
L 380.288419 276.897952 
L 380.613399 276.964568 
L 380.938378 277.245209 
L 381.263358 277.333948 
L 381.588337 277.043523 
L 381.913317 277.24967 
L 382.563276 277.239335 
L 382.888256 277.520458 
L 383.213235 277.640092 
L 383.538215 277.216681 
L 383.863194 277.439752 
L 384.188174 277.513616 
L 384.513153 277.426432 
L 384.838133 277.925688 
L 385.163112 277.600945 
L 385.488092 278.072748 
L 385.813071 278.003388 
L 386.138051 278.19342 
L 386.46303 277.671772 
L 386.78801 278.114899 
L 387.112989 277.665004 
L 387.437969 277.777351 
L 387.762948 278.166745 
L 388.087928 278.095452 
L 388.737887 278.450712 
L 389.062867 278.042243 
L 389.387846 278.251497 
L 389.712826 278.303933 
L 390.037805 278.23252 
L 390.362785 278.587736 
L 390.687764 278.472347 
L 391.012744 278.684872 
L 391.337723 278.593883 
L 391.662703 278.833775 
L 391.987682 278.694181 
L 392.312662 278.931407 
L 392.637641 278.493094 
L 392.962621 278.739259 
L 393.61258 278.583018 
L 393.937559 278.893639 
L 394.262539 278.780243 
L 394.912498 279.072388 
L 395.237477 278.871695 
L 395.562457 279.306609 
L 395.887437 278.456471 
L 396.212416 278.623849 
L 396.537396 278.947183 
L 397.837314 279.363117 
L 398.162293 279.19146 
L 398.487273 279.367691 
L 398.487273 279.367691 
" clip-path="url(#pa06f2d94ad)" style="fill: none; stroke: #bcbd22; stroke-width: 1.5; stroke-linecap: square"/>
   </g>
   <g id="patch_3">
    <path d="M 57.6 307.584 
L 57.6 41.472 
" style="fill: none; stroke: #000000; stroke-width: 0.8; stroke-linejoin: miter; stroke-linecap: square"/>
   </g>
   <g id="patch_4">
    <path d="M 414.72 307.584 
L 414.72 41.472 
" style="fill: none; stroke: #000000; stroke-width: 0.8; stroke-linejoin: miter; stroke-linecap: square"/>
   </g>
   <g id="patch_5">
    <path d="M 57.6 307.584 
L 414.72 307.584 
" style="fill: none; stroke: #000000; stroke-width: 0.8; stroke-linejoin: miter; stroke-linecap: square"/>
   </g>
   <g id="patch_6">
    <path d="M 57.6 41.472 
L 414.72 41.472 
" style="fill: none; stroke: #000000; stroke-width: 0.8; stroke-linejoin: miter; stroke-linecap: square"/>
   </g>
   <g id="text_13">
    <!-- Loss over epochs for "Romeo and Juliet" -->
    <g transform="translate(115.99125 35.472) scale(0.12 -0.12)">
     <defs>
      <path id="DejaVuSans-4c" d="M 628 4666 
L 1259 4666 
L 1259 531 
L 3531 531 
L 3531 0 
L 628 0 
L 628 4666 
z
" transform="scale(0.015625)"/>
      <path id="DejaVuSans-6f" d="M 1959 3097 
Q 1497 3097 1228 2736 
Q 959 2375 959 1747 
Q 959 1119 1226 758 
Q 1494 397 1959 397 
Q 2419 397 2687 759 
Q 2956 1122 2956 1747 
Q 2956 2369 2687 2733 
Q 2419 3097 1959 3097 
z
M 1959 3584 
Q 2709 3584 3137 3096 
Q 3566 2609 3566 1747 
Q 3566 888 3137 398 
Q 2709 -91 1959 -91 
Q 1206 -91 779 398 
Q 353 888 353 1747 
Q 353 2609 779 3096 
Q 1206 3584 1959 3584 
z
" transform="scale(0.015625)"/>
      <path id="DejaVuSans-73" d="M 2834 3397 
L 2834 2853 
Q 2591 2978 2328 3040 
Q 2066 3103 1784 3103 
Q 1356 3103 1142 2972 
Q 928 2841 928 2578 
Q 928 2378 1081 2264 
Q 1234 2150 1697 2047 
L 1894 2003 
Q 2506 1872 2764 1633 
Q 3022 1394 3022 966 
Q 3022 478 2636 193 
Q 2250 -91 1575 -91 
Q 1294 -91 989 -36 
Q 684 19 347 128 
L 347 722 
Q 666 556 975 473 
Q 1284 391 1588 391 
Q 1994 391 2212 530 
Q 2431 669 2431 922 
Q 2431 1156 2273 1281 
Q 2116 1406 1581 1522 
L 1381 1569 
Q 847 1681 609 1914 
Q 372 2147 372 2553 
Q 372 3047 722 3315 
Q 1072 3584 1716 3584 
Q 2034 3584 2315 3537 
Q 2597 3491 2834 3397 
z
" transform="scale(0.015625)"/>
      <path id="DejaVuSans-20" transform="scale(0.015625)"/>
      <path id="DejaVuSans-76" d="M 191 3500 
L 800 3500 
L 1894 563 
L 2988 3500 
L 3597 3500 
L 2284 0 
L 1503 0 
L 191 3500 
z
" transform="scale(0.015625)"/>
      <path id="DejaVuSans-65" d="M 3597 1894 
L 3597 1613 
L 953 1613 
Q 991 1019 1311 708 
Q 1631 397 2203 397 
Q 2534 397 2845 478 
Q 3156 559 3463 722 
L 3463 178 
Q 3153 47 2828 -22 
Q 2503 -91 2169 -91 
Q 1331 -91 842 396 
Q 353 884 353 1716 
Q 353 2575 817 3079 
Q 1281 3584 2069 3584 
Q 2775 3584 3186 3129 
Q 3597 2675 3597 1894 
z
M 3022 2063 
Q 3016 2534 2758 2815 
Q 2500 3097 2075 3097 
Q 1594 3097 1305 2825 
Q 1016 2553 972 2059 
L 3022 2063 
z
" transform="scale(0.015625)"/>
      <path id="DejaVuSans-72" d="M 2631 2963 
Q 2534 3019 2420 3045 
Q 2306 3072 2169 3072 
Q 1681 3072 1420 2755 
Q 1159 2438 1159 1844 
L 1159 0 
L 581 0 
L 581 3500 
L 1159 3500 
L 1159 2956 
Q 1341 3275 1631 3429 
Q 1922 3584 2338 3584 
Q 2397 3584 2469 3576 
Q 2541 3569 2628 3553 
L 2631 2963 
z
" transform="scale(0.015625)"/>
      <path id="DejaVuSans-70" d="M 1159 525 
L 1159 -1331 
L 581 -1331 
L 581 3500 
L 1159 3500 
L 1159 2969 
Q 1341 3281 1617 3432 
Q 1894 3584 2278 3584 
Q 2916 3584 3314 3078 
Q 3713 2572 3713 1747 
Q 3713 922 3314 415 
Q 2916 -91 2278 -91 
Q 1894 -91 1617 61 
Q 1341 213 1159 525 
z
M 3116 1747 
Q 3116 2381 2855 2742 
Q 2594 3103 2138 3103 
Q 1681 3103 1420 2742 
Q 1159 2381 1159 1747 
Q 1159 1113 1420 752 
Q 1681 391 2138 391 
Q 2594 391 2855 752 
Q 3116 1113 3116 1747 
z
" transform="scale(0.015625)"/>
      <path id="DejaVuSans-63" d="M 3122 3366 
L 3122 2828 
Q 2878 2963 2633 3030 
Q 2388 3097 2138 3097 
Q 1578 3097 1268 2742 
Q 959 2388 959 1747 
Q 959 1106 1268 751 
Q 1578 397 2138 397 
Q 2388 397 2633 464 
Q 2878 531 3122 666 
L 3122 134 
Q 2881 22 2623 -34 
Q 2366 -91 2075 -91 
Q 1284 -91 818 406 
Q 353 903 353 1747 
Q 353 2603 823 3093 
Q 1294 3584 2113 3584 
Q 2378 3584 2631 3529 
Q 2884 3475 3122 3366 
z
" transform="scale(0.015625)"/>
      <path id="DejaVuSans-68" d="M 3513 2113 
L 3513 0 
L 2938 0 
L 2938 2094 
Q 2938 2591 2744 2837 
Q 2550 3084 2163 3084 
Q 1697 3084 1428 2787 
Q 1159 2491 1159 1978 
L 1159 0 
L 581 0 
L 581 4863 
L 1159 4863 
L 1159 2956 
Q 1366 3272 1645 3428 
Q 1925 3584 2291 3584 
Q 2894 3584 3203 3211 
Q 3513 2838 3513 2113 
z
" transform="scale(0.015625)"/>
      <path id="DejaVuSans-66" d="M 2375 4863 
L 2375 4384 
L 1825 4384 
Q 1516 4384 1395 4259 
Q 1275 4134 1275 3809 
L 1275 3500 
L 2222 3500 
L 2222 3053 
L 1275 3053 
L 1275 0 
L 697 0 
L 697 3053 
L 147 3053 
L 147 3500 
L 697 3500 
L 697 3744 
Q 697 4328 969 4595 
Q 1241 4863 1831 4863 
L 2375 4863 
z
" transform="scale(0.015625)"/>
      <path id="DejaVuSans-22" d="M 1147 4666 
L 1147 2931 
L 616 2931 
L 616 4666 
L 1147 4666 
z
M 2328 4666 
L 2328 2931 
L 1797 2931 
L 1797 4666 
L 2328 4666 
z
" transform="scale(0.015625)"/>
      <path id="DejaVuSans-52" d="M 2841 2188 
Q 3044 2119 3236 1894 
Q 3428 1669 3622 1275 
L 4263 0 
L 3584 0 
L 2988 1197 
Q 2756 1666 2539 1819 
Q 2322 1972 1947 1972 
L 1259 1972 
L 1259 0 
L 628 0 
L 628 4666 
L 2053 4666 
Q 2853 4666 3247 4331 
Q 3641 3997 3641 3322 
Q 3641 2881 3436 2590 
Q 3231 2300 2841 2188 
z
M 1259 4147 
L 1259 2491 
L 2053 2491 
Q 2509 2491 2742 2702 
Q 2975 2913 2975 3322 
Q 2975 3731 2742 3939 
Q 2509 4147 2053 4147 
L 1259 4147 
z
" transform="scale(0.015625)"/>
      <path id="DejaVuSans-6d" d="M 3328 2828 
Q 3544 3216 3844 3400 
Q 4144 3584 4550 3584 
Q 5097 3584 5394 3201 
Q 5691 2819 5691 2113 
L 5691 0 
L 5113 0 
L 5113 2094 
Q 5113 2597 4934 2840 
Q 4756 3084 4391 3084 
Q 3944 3084 3684 2787 
Q 3425 2491 3425 1978 
L 3425 0 
L 2847 0 
L 2847 2094 
Q 2847 2600 2669 2842 
Q 2491 3084 2119 3084 
Q 1678 3084 1418 2786 
Q 1159 2488 1159 1978 
L 1159 0 
L 581 0 
L 581 3500 
L 1159 3500 
L 1159 2956 
Q 1356 3278 1631 3431 
Q 1906 3584 2284 3584 
Q 2666 3584 2933 3390 
Q 3200 3197 3328 2828 
z
" transform="scale(0.015625)"/>
      <path id="DejaVuSans-61" d="M 2194 1759 
Q 1497 1759 1228 1600 
Q 959 1441 959 1056 
Q 959 750 1161 570 
Q 1363 391 1709 391 
Q 2188 391 2477 730 
Q 2766 1069 2766 1631 
L 2766 1759 
L 2194 1759 
z
M 3341 1997 
L 3341 0 
L 2766 0 
L 2766 531 
Q 2569 213 2275 61 
Q 1981 -91 1556 -91 
Q 1019 -91 701 211 
Q 384 513 384 1019 
Q 384 1609 779 1909 
Q 1175 2209 1959 2209 
L 2766 2209 
L 2766 2266 
Q 2766 2663 2505 2880 
Q 2244 3097 1772 3097 
Q 1472 3097 1187 3025 
Q 903 2953 641 2809 
L 641 3341 
Q 956 3463 1253 3523 
Q 1550 3584 1831 3584 
Q 2591 3584 2966 3190 
Q 3341 2797 3341 1997 
z
" transform="scale(0.015625)"/>
      <path id="DejaVuSans-6e" d="M 3513 2113 
L 3513 0 
L 2938 0 
L 2938 2094 
Q 2938 2591 2744 2837 
Q 2550 3084 2163 3084 
Q 1697 3084 1428 2787 
Q 1159 2491 1159 1978 
L 1159 0 
L 581 0 
L 581 3500 
L 1159 3500 
L 1159 2956 
Q 1366 3272 1645 3428 
Q 1925 3584 2291 3584 
Q 2894 3584 3203 3211 
Q 3513 2838 3513 2113 
z
" transform="scale(0.015625)"/>
      <path id="DejaVuSans-64" d="M 2906 2969 
L 2906 4863 
L 3481 4863 
L 3481 0 
L 2906 0 
L 2906 525 
Q 2725 213 2448 61 
Q 2172 -91 1784 -91 
Q 1150 -91 751 415 
Q 353 922 353 1747 
Q 353 2572 751 3078 
Q 1150 3584 1784 3584 
Q 2172 3584 2448 3432 
Q 2725 3281 2906 2969 
z
M 947 1747 
Q 947 1113 1208 752 
Q 1469 391 1925 391 
Q 2381 391 2643 752 
Q 2906 1113 2906 1747 
Q 2906 2381 2643 2742 
Q 2381 3103 1925 3103 
Q 1469 3103 1208 2742 
Q 947 2381 947 1747 
z
" transform="scale(0.015625)"/>
      <path id="DejaVuSans-4a" d="M 628 4666 
L 1259 4666 
L 1259 325 
Q 1259 -519 939 -900 
Q 619 -1281 -91 -1281 
L -331 -1281 
L -331 -750 
L -134 -750 
Q 284 -750 456 -515 
Q 628 -281 628 325 
L 628 4666 
z
" transform="scale(0.015625)"/>
      <path id="DejaVuSans-75" d="M 544 1381 
L 544 3500 
L 1119 3500 
L 1119 1403 
Q 1119 906 1312 657 
Q 1506 409 1894 409 
Q 2359 409 2629 706 
Q 2900 1003 2900 1516 
L 2900 3500 
L 3475 3500 
L 3475 0 
L 2900 0 
L 2900 538 
Q 2691 219 2414 64 
Q 2138 -91 1772 -91 
Q 1169 -91 856 284 
Q 544 659 544 1381 
z
M 1991 3584 
L 1991 3584 
z
" transform="scale(0.015625)"/>
      <path id="DejaVuSans-6c" d="M 603 4863 
L 1178 4863 
L 1178 0 
L 603 0 
L 603 4863 
z
" transform="scale(0.015625)"/>
      <path id="DejaVuSans-69" d="M 603 3500 
L 1178 3500 
L 1178 0 
L 603 0 
L 603 3500 
z
M 603 4863 
L 1178 4863 
L 1178 4134 
L 603 4134 
L 603 4863 
z
" transform="scale(0.015625)"/>
      <path id="DejaVuSans-74" d="M 1172 4494 
L 1172 3500 
L 2356 3500 
L 2356 3053 
L 1172 3053 
L 1172 1153 
Q 1172 725 1289 603 
Q 1406 481 1766 481 
L 2356 481 
L 2356 0 
L 1766 0 
Q 1100 0 847 248 
Q 594 497 594 1153 
L 594 3053 
L 172 3053 
L 172 3500 
L 594 3500 
L 594 4494 
L 1172 4494 
z
" transform="scale(0.015625)"/>
     </defs>
     <use xlink:href="#DejaVuSans-4c"/>
     <use xlink:href="#DejaVuSans-6f" x="53.962891"/>
     <use xlink:href="#DejaVuSans-73" x="115.144531"/>
     <use xlink:href="#DejaVuSans-73" x="167.244141"/>
     <use xlink:href="#DejaVuSans-20" x="219.34375"/>
     <use xlink:href="#DejaVuSans-6f" x="251.130859"/>
     <use xlink:href="#DejaVuSans-76" x="312.3125"/>
     <use xlink:href="#DejaVuSans-65" x="371.492188"/>
     <use xlink:href="#DejaVuSans-72" x="433.015625"/>
     <use xlink:href="#DejaVuSans-20" x="474.128906"/>
     <use xlink:href="#DejaVuSans-65" x="505.916016"/>
     <use xlink:href="#DejaVuSans-70" x="567.439453"/>
     <use xlink:href="#DejaVuSans-6f" x="630.916016"/>
     <use xlink:href="#DejaVuSans-63" x="692.097656"/>
     <use xlink:href="#DejaVuSans-68" x="747.078125"/>
     <use xlink:href="#DejaVuSans-73" x="810.457031"/>
     <use xlink:href="#DejaVuSans-20" x="862.556641"/>
     <use xlink:href="#DejaVuSans-66" x="894.34375"/>
     <use xlink:href="#DejaVuSans-6f" x="929.548828"/>
     <use xlink:href="#DejaVuSans-72" x="990.730469"/>
     <use xlink:href="#DejaVuSans-20" x="1031.84375"/>
     <use xlink:href="#DejaVuSans-22" x="1063.630859"/>
     <use xlink:href="#DejaVuSans-52" x="1109.626953"/>
     <use xlink:href="#DejaVuSans-6f" x="1174.609375"/>
     <use xlink:href="#DejaVuSans-6d" x="1235.791016"/>
     <use xlink:href="#DejaVuSans-65" x="1333.203125"/>
     <use xlink:href="#DejaVuSans-6f" x="1394.726562"/>
     <use xlink:href="#DejaVuSans-20" x="1455.908203"/>
     <use xlink:href="#DejaVuSans-61" x="1487.695312"/>
     <use xlink:href="#DejaVuSans-6e" x="1548.974609"/>
     <use xlink:href="#DejaVuSans-64" x="1612.353516"/>
     <use xlink:href="#DejaVuSans-20" x="1675.830078"/>
     <use xlink:href="#DejaVuSans-4a" x="1707.617188"/>
     <use xlink:href="#DejaVuSans-75" x="1737.109375"/>
     <use xlink:href="#DejaVuSans-6c" x="1800.488281"/>
     <use xlink:href="#DejaVuSans-69" x="1828.271484"/>
     <use xlink:href="#DejaVuSans-65" x="1856.054688"/>
     <use xlink:href="#DejaVuSans-74" x="1917.578125"/>
     <use xlink:href="#DejaVuSans-22" x="1956.787109"/>
    </g>
   </g>
   <g id="legend_1">
    <g id="patch_7">
     <path d="M 292.0325 181.575125 
L 407.72 181.575125 
Q 409.72 181.575125 409.72 179.575125 
L 409.72 48.472 
Q 409.72 46.472 407.72 46.472 
L 292.0325 46.472 
Q 290.0325 46.472 290.0325 48.472 
L 290.0325 179.575125 
Q 290.0325 181.575125 292.0325 181.575125 
z
" style="fill: #ffffff; opacity: 0.8; stroke: #cccccc; stroke-linejoin: miter"/>
    </g>
    <g id="line2d_22">
     <path d="M 294.0325 54.570438 
L 304.0325 54.570438 
L 314.0325 54.570438 
" style="fill: none; stroke: #1f77b4; stroke-width: 1.5; stroke-linecap: square"/>
    </g>
    <g id="text_14">
     <!-- Hidden size: 1 -->
     <g transform="translate(322.0325 58.070438) scale(0.1 -0.1)">
      <defs>
       <path id="DejaVuSans-48" d="M 628 4666 
L 1259 4666 
L 1259 2753 
L 3553 2753 
L 3553 4666 
L 4184 4666 
L 4184 0 
L 3553 0 
L 3553 2222 
L 1259 2222 
L 1259 0 
L 628 0 
L 628 4666 
z
" transform="scale(0.015625)"/>
       <path id="DejaVuSans-7a" d="M 353 3500 
L 3084 3500 
L 3084 2975 
L 922 459 
L 3084 459 
L 3084 0 
L 275 0 
L 275 525 
L 2438 3041 
L 353 3041 
L 353 3500 
z
" transform="scale(0.015625)"/>
       <path id="DejaVuSans-3a" d="M 750 794 
L 1409 794 
L 1409 0 
L 750 0 
L 750 794 
z
M 750 3309 
L 1409 3309 
L 1409 2516 
L 750 2516 
L 750 3309 
z
" transform="scale(0.015625)"/>
      </defs>
      <use xlink:href="#DejaVuSans-48"/>
      <use xlink:href="#DejaVuSans-69" x="75.195312"/>
      <use xlink:href="#DejaVuSans-64" x="102.978516"/>
      <use xlink:href="#DejaVuSans-64" x="166.455078"/>
      <use xlink:href="#DejaVuSans-65" x="229.931641"/>
      <use xlink:href="#DejaVuSans-6e" x="291.455078"/>
      <use xlink:href="#DejaVuSans-20" x="354.833984"/>
      <use xlink:href="#DejaVuSans-73" x="386.621094"/>
      <use xlink:href="#DejaVuSans-69" x="438.720703"/>
      <use xlink:href="#DejaVuSans-7a" x="466.503906"/>
      <use xlink:href="#DejaVuSans-65" x="518.994141"/>
      <use xlink:href="#DejaVuSans-3a" x="580.517578"/>
      <use xlink:href="#DejaVuSans-20" x="614.208984"/>
      <use xlink:href="#DejaVuSans-31" x="645.996094"/>
     </g>
    </g>
    <g id="line2d_23">
     <path d="M 294.0325 69.248563 
L 304.0325 69.248563 
L 314.0325 69.248563 
" style="fill: none; stroke: #ff7f0e; stroke-width: 1.5; stroke-linecap: square"/>
    </g>
    <g id="text_15">
     <!-- Hidden size: 2 -->
     <g transform="translate(322.0325 72.748563) scale(0.1 -0.1)">
      <use xlink:href="#DejaVuSans-48"/>
      <use xlink:href="#DejaVuSans-69" x="75.195312"/>
      <use xlink:href="#DejaVuSans-64" x="102.978516"/>
      <use xlink:href="#DejaVuSans-64" x="166.455078"/>
      <use xlink:href="#DejaVuSans-65" x="229.931641"/>
      <use xlink:href="#DejaVuSans-6e" x="291.455078"/>
      <use xlink:href="#DejaVuSans-20" x="354.833984"/>
      <use xlink:href="#DejaVuSans-73" x="386.621094"/>
      <use xlink:href="#DejaVuSans-69" x="438.720703"/>
      <use xlink:href="#DejaVuSans-7a" x="466.503906"/>
      <use xlink:href="#DejaVuSans-65" x="518.994141"/>
      <use xlink:href="#DejaVuSans-3a" x="580.517578"/>
      <use xlink:href="#DejaVuSans-20" x="614.208984"/>
      <use xlink:href="#DejaVuSans-32" x="645.996094"/>
     </g>
    </g>
    <g id="line2d_24">
     <path d="M 294.0325 83.926688 
L 304.0325 83.926688 
L 314.0325 83.926688 
" style="fill: none; stroke: #2ca02c; stroke-width: 1.5; stroke-linecap: square"/>
    </g>
    <g id="text_16">
     <!-- Hidden size: 3 -->
     <g transform="translate(322.0325 87.426688) scale(0.1 -0.1)">
      <use xlink:href="#DejaVuSans-48"/>
      <use xlink:href="#DejaVuSans-69" x="75.195312"/>
      <use xlink:href="#DejaVuSans-64" x="102.978516"/>
      <use xlink:href="#DejaVuSans-64" x="166.455078"/>
      <use xlink:href="#DejaVuSans-65" x="229.931641"/>
      <use xlink:href="#DejaVuSans-6e" x="291.455078"/>
      <use xlink:href="#DejaVuSans-20" x="354.833984"/>
      <use xlink:href="#DejaVuSans-73" x="386.621094"/>
      <use xlink:href="#DejaVuSans-69" x="438.720703"/>
      <use xlink:href="#DejaVuSans-7a" x="466.503906"/>
      <use xlink:href="#DejaVuSans-65" x="518.994141"/>
      <use xlink:href="#DejaVuSans-3a" x="580.517578"/>
      <use xlink:href="#DejaVuSans-20" x="614.208984"/>
      <use xlink:href="#DejaVuSans-33" x="645.996094"/>
     </g>
    </g>
    <g id="line2d_25">
     <path d="M 294.0325 98.604813 
L 304.0325 98.604813 
L 314.0325 98.604813 
" style="fill: none; stroke: #d62728; stroke-width: 1.5; stroke-linecap: square"/>
    </g>
    <g id="text_17">
     <!-- Hidden size: 4 -->
     <g transform="translate(322.0325 102.104813) scale(0.1 -0.1)">
      <use xlink:href="#DejaVuSans-48"/>
      <use xlink:href="#DejaVuSans-69" x="75.195312"/>
      <use xlink:href="#DejaVuSans-64" x="102.978516"/>
      <use xlink:href="#DejaVuSans-64" x="166.455078"/>
      <use xlink:href="#DejaVuSans-65" x="229.931641"/>
      <use xlink:href="#DejaVuSans-6e" x="291.455078"/>
      <use xlink:href="#DejaVuSans-20" x="354.833984"/>
      <use xlink:href="#DejaVuSans-73" x="386.621094"/>
      <use xlink:href="#DejaVuSans-69" x="438.720703"/>
      <use xlink:href="#DejaVuSans-7a" x="466.503906"/>
      <use xlink:href="#DejaVuSans-65" x="518.994141"/>
      <use xlink:href="#DejaVuSans-3a" x="580.517578"/>
      <use xlink:href="#DejaVuSans-20" x="614.208984"/>
      <use xlink:href="#DejaVuSans-34" x="645.996094"/>
     </g>
    </g>
    <g id="line2d_26">
     <path d="M 294.0325 113.282938 
L 304.0325 113.282938 
L 314.0325 113.282938 
" style="fill: none; stroke: #9467bd; stroke-width: 1.5; stroke-linecap: square"/>
    </g>
    <g id="text_18">
     <!-- Hidden size: 5 -->
     <g transform="translate(322.0325 116.782938) scale(0.1 -0.1)">
      <use xlink:href="#DejaVuSans-48"/>
      <use xlink:href="#DejaVuSans-69" x="75.195312"/>
      <use xlink:href="#DejaVuSans-64" x="102.978516"/>
      <use xlink:href="#DejaVuSans-64" x="166.455078"/>
      <use xlink:href="#DejaVuSans-65" x="229.931641"/>
      <use xlink:href="#DejaVuSans-6e" x="291.455078"/>
      <use xlink:href="#DejaVuSans-20" x="354.833984"/>
      <use xlink:href="#DejaVuSans-73" x="386.621094"/>
      <use xlink:href="#DejaVuSans-69" x="438.720703"/>
      <use xlink:href="#DejaVuSans-7a" x="466.503906"/>
      <use xlink:href="#DejaVuSans-65" x="518.994141"/>
      <use xlink:href="#DejaVuSans-3a" x="580.517578"/>
      <use xlink:href="#DejaVuSans-20" x="614.208984"/>
      <use xlink:href="#DejaVuSans-35" x="645.996094"/>
     </g>
    </g>
    <g id="line2d_27">
     <path d="M 294.0325 127.961063 
L 304.0325 127.961063 
L 314.0325 127.961063 
" style="fill: none; stroke: #8c564b; stroke-width: 1.5; stroke-linecap: square"/>
    </g>
    <g id="text_19">
     <!-- Hidden size: 10 -->
     <g transform="translate(322.0325 131.461063) scale(0.1 -0.1)">
      <use xlink:href="#DejaVuSans-48"/>
      <use xlink:href="#DejaVuSans-69" x="75.195312"/>
      <use xlink:href="#DejaVuSans-64" x="102.978516"/>
      <use xlink:href="#DejaVuSans-64" x="166.455078"/>
      <use xlink:href="#DejaVuSans-65" x="229.931641"/>
      <use xlink:href="#DejaVuSans-6e" x="291.455078"/>
      <use xlink:href="#DejaVuSans-20" x="354.833984"/>
      <use xlink:href="#DejaVuSans-73" x="386.621094"/>
      <use xlink:href="#DejaVuSans-69" x="438.720703"/>
      <use xlink:href="#DejaVuSans-7a" x="466.503906"/>
      <use xlink:href="#DejaVuSans-65" x="518.994141"/>
      <use xlink:href="#DejaVuSans-3a" x="580.517578"/>
      <use xlink:href="#DejaVuSans-20" x="614.208984"/>
      <use xlink:href="#DejaVuSans-31" x="645.996094"/>
      <use xlink:href="#DejaVuSans-30" x="709.619141"/>
     </g>
    </g>
    <g id="line2d_28">
     <path d="M 294.0325 142.639188 
L 304.0325 142.639188 
L 314.0325 142.639188 
" style="fill: none; stroke: #e377c2; stroke-width: 1.5; stroke-linecap: square"/>
    </g>
    <g id="text_20">
     <!-- Hidden size: 20 -->
     <g transform="translate(322.0325 146.139188) scale(0.1 -0.1)">
      <use xlink:href="#DejaVuSans-48"/>
      <use xlink:href="#DejaVuSans-69" x="75.195312"/>
      <use xlink:href="#DejaVuSans-64" x="102.978516"/>
      <use xlink:href="#DejaVuSans-64" x="166.455078"/>
      <use xlink:href="#DejaVuSans-65" x="229.931641"/>
      <use xlink:href="#DejaVuSans-6e" x="291.455078"/>
      <use xlink:href="#DejaVuSans-20" x="354.833984"/>
      <use xlink:href="#DejaVuSans-73" x="386.621094"/>
      <use xlink:href="#DejaVuSans-69" x="438.720703"/>
      <use xlink:href="#DejaVuSans-7a" x="466.503906"/>
      <use xlink:href="#DejaVuSans-65" x="518.994141"/>
      <use xlink:href="#DejaVuSans-3a" x="580.517578"/>
      <use xlink:href="#DejaVuSans-20" x="614.208984"/>
      <use xlink:href="#DejaVuSans-32" x="645.996094"/>
      <use xlink:href="#DejaVuSans-30" x="709.619141"/>
     </g>
    </g>
    <g id="line2d_29">
     <path d="M 294.0325 157.317313 
L 304.0325 157.317313 
L 314.0325 157.317313 
" style="fill: none; stroke: #7f7f7f; stroke-width: 1.5; stroke-linecap: square"/>
    </g>
    <g id="text_21">
     <!-- Hidden size: 100 -->
     <g transform="translate(322.0325 160.817313) scale(0.1 -0.1)">
      <use xlink:href="#DejaVuSans-48"/>
      <use xlink:href="#DejaVuSans-69" x="75.195312"/>
      <use xlink:href="#DejaVuSans-64" x="102.978516"/>
      <use xlink:href="#DejaVuSans-64" x="166.455078"/>
      <use xlink:href="#DejaVuSans-65" x="229.931641"/>
      <use xlink:href="#DejaVuSans-6e" x="291.455078"/>
      <use xlink:href="#DejaVuSans-20" x="354.833984"/>
      <use xlink:href="#DejaVuSans-73" x="386.621094"/>
      <use xlink:href="#DejaVuSans-69" x="438.720703"/>
      <use xlink:href="#DejaVuSans-7a" x="466.503906"/>
      <use xlink:href="#DejaVuSans-65" x="518.994141"/>
      <use xlink:href="#DejaVuSans-3a" x="580.517578"/>
      <use xlink:href="#DejaVuSans-20" x="614.208984"/>
      <use xlink:href="#DejaVuSans-31" x="645.996094"/>
      <use xlink:href="#DejaVuSans-30" x="709.619141"/>
      <use xlink:href="#DejaVuSans-30" x="773.242188"/>
     </g>
    </g>
    <g id="line2d_30">
     <path d="M 294.0325 171.995438 
L 304.0325 171.995438 
L 314.0325 171.995438 
" style="fill: none; stroke: #bcbd22; stroke-width: 1.5; stroke-linecap: square"/>
    </g>
    <g id="text_22">
     <!-- Hidden size: 200 -->
     <g transform="translate(322.0325 175.495438) scale(0.1 -0.1)">
      <use xlink:href="#DejaVuSans-48"/>
      <use xlink:href="#DejaVuSans-69" x="75.195312"/>
      <use xlink:href="#DejaVuSans-64" x="102.978516"/>
      <use xlink:href="#DejaVuSans-64" x="166.455078"/>
      <use xlink:href="#DejaVuSans-65" x="229.931641"/>
      <use xlink:href="#DejaVuSans-6e" x="291.455078"/>
      <use xlink:href="#DejaVuSans-20" x="354.833984"/>
      <use xlink:href="#DejaVuSans-73" x="386.621094"/>
      <use xlink:href="#DejaVuSans-69" x="438.720703"/>
      <use xlink:href="#DejaVuSans-7a" x="466.503906"/>
      <use xlink:href="#DejaVuSans-65" x="518.994141"/>
      <use xlink:href="#DejaVuSans-3a" x="580.517578"/>
      <use xlink:href="#DejaVuSans-20" x="614.208984"/>
      <use xlink:href="#DejaVuSans-32" x="645.996094"/>
      <use xlink:href="#DejaVuSans-30" x="709.619141"/>
      <use xlink:href="#DejaVuSans-30" x="773.242188"/>
     </g>
    </g>
   </g>
  </g>
 </g>
 <defs>
  <clipPath id="pa06f2d94ad">
   <rect x="57.6" y="41.472" width="357.12" height="266.112"/>
  </clipPath>
 </defs>
</svg>
