<?xml version="1.0" encoding="utf-8" standalone="no"?>
<!DOCTYPE svg PUBLIC "-//W3C//DTD SVG 1.1//EN"
  "http://www.w3.org/Graphics/SVG/1.1/DTD/svg11.dtd">
<svg xmlns:xlink="http://www.w3.org/1999/xlink" width="460.8pt" height="345.6pt" viewBox="0 0 460.8 345.6" xmlns="http://www.w3.org/2000/svg" version="1.1">
 <metadata>
  <rdf:RDF xmlns:dc="http://purl.org/dc/elements/1.1/" xmlns:cc="http://creativecommons.org/ns#" xmlns:rdf="http://www.w3.org/1999/02/22-rdf-syntax-ns#">
   <cc:Work>
    <dc:type rdf:resource="http://purl.org/dc/dcmitype/StillImage"/>
    <dc:date>2024-05-29T18:44:37.170982</dc:date>
    <dc:format>image/svg+xml</dc:format>
    <dc:creator>
     <cc:Agent>
      <dc:title>Matplotlib v3.8.3, https://matplotlib.org/</dc:title>
     </cc:Agent>
    </dc:creator>
   </cc:Work>
  </rdf:RDF>
 </metadata>
 <defs>
  <style type="text/css">*{stroke-linejoin: round; stroke-linecap: butt}</style>
 </defs>
 <g id="figure_1">
  <g id="patch_1">
   <path d="M 0 345.6 
L 460.8 345.6 
L 460.8 0 
L 0 0 
z
" style="fill: #ffffff"/>
  </g>
  <g id="axes_1">
   <g id="patch_2">
    <path d="M 57.6 307.584 
L 414.72 307.584 
L 414.72 41.472 
L 57.6 41.472 
z
" style="fill: #ffffff"/>
   </g>
   <g id="matplotlib.axis_1">
    <g id="xtick_1">
     <g id="line2d_1">
      <defs>
       <path id="m02c0e00116" d="M 0 0 
L 0 3.5 
" style="stroke: #000000; stroke-width: 0.8"/>
      </defs>
      <g>
       <use xlink:href="#m02c0e00116" x="73.832727" y="307.584" style="stroke: #000000; stroke-width: 0.8"/>
      </g>
     </g>
     <g id="text_1">
      <!-- 0 -->
      <g transform="translate(70.651477 322.182437) scale(0.1 -0.1)">
       <defs>
        <path id="DejaVuSans-30" d="M 2034 4250 
Q 1547 4250 1301 3770 
Q 1056 3291 1056 2328 
Q 1056 1369 1301 889 
Q 1547 409 2034 409 
Q 2525 409 2770 889 
Q 3016 1369 3016 2328 
Q 3016 3291 2770 3770 
Q 2525 4250 2034 4250 
z
M 2034 4750 
Q 2819 4750 3233 4129 
Q 3647 3509 3647 2328 
Q 3647 1150 3233 529 
Q 2819 -91 2034 -91 
Q 1250 -91 836 529 
Q 422 1150 422 2328 
Q 422 3509 836 4129 
Q 1250 4750 2034 4750 
z
" transform="scale(0.015625)"/>
       </defs>
       <use xlink:href="#DejaVuSans-30"/>
      </g>
     </g>
    </g>
    <g id="xtick_2">
     <g id="line2d_2">
      <g>
       <use xlink:href="#m02c0e00116" x="114.434847" y="307.584" style="stroke: #000000; stroke-width: 0.8"/>
      </g>
     </g>
     <g id="text_2">
      <!-- 250 -->
      <g transform="translate(104.891097 322.182437) scale(0.1 -0.1)">
       <defs>
        <path id="DejaVuSans-32" d="M 1228 531 
L 3431 531 
L 3431 0 
L 469 0 
L 469 531 
Q 828 903 1448 1529 
Q 2069 2156 2228 2338 
Q 2531 2678 2651 2914 
Q 2772 3150 2772 3378 
Q 2772 3750 2511 3984 
Q 2250 4219 1831 4219 
Q 1534 4219 1204 4116 
Q 875 4013 500 3803 
L 500 4441 
Q 881 4594 1212 4672 
Q 1544 4750 1819 4750 
Q 2544 4750 2975 4387 
Q 3406 4025 3406 3419 
Q 3406 3131 3298 2873 
Q 3191 2616 2906 2266 
Q 2828 2175 2409 1742 
Q 1991 1309 1228 531 
z
" transform="scale(0.015625)"/>
        <path id="DejaVuSans-35" d="M 691 4666 
L 3169 4666 
L 3169 4134 
L 1269 4134 
L 1269 2991 
Q 1406 3038 1543 3061 
Q 1681 3084 1819 3084 
Q 2600 3084 3056 2656 
Q 3513 2228 3513 1497 
Q 3513 744 3044 326 
Q 2575 -91 1722 -91 
Q 1428 -91 1123 -41 
Q 819 9 494 109 
L 494 744 
Q 775 591 1075 516 
Q 1375 441 1709 441 
Q 2250 441 2565 725 
Q 2881 1009 2881 1497 
Q 2881 1984 2565 2268 
Q 2250 2553 1709 2553 
Q 1456 2553 1204 2497 
Q 953 2441 691 2322 
L 691 4666 
z
" transform="scale(0.015625)"/>
       </defs>
       <use xlink:href="#DejaVuSans-32"/>
       <use xlink:href="#DejaVuSans-35" x="63.623047"/>
       <use xlink:href="#DejaVuSans-30" x="127.246094"/>
      </g>
     </g>
    </g>
    <g id="xtick_3">
     <g id="line2d_3">
      <g>
       <use xlink:href="#m02c0e00116" x="155.036966" y="307.584" style="stroke: #000000; stroke-width: 0.8"/>
      </g>
     </g>
     <g id="text_3">
      <!-- 500 -->
      <g transform="translate(145.493216 322.182437) scale(0.1 -0.1)">
       <use xlink:href="#DejaVuSans-35"/>
       <use xlink:href="#DejaVuSans-30" x="63.623047"/>
       <use xlink:href="#DejaVuSans-30" x="127.246094"/>
      </g>
     </g>
    </g>
    <g id="xtick_4">
     <g id="line2d_4">
      <g>
       <use xlink:href="#m02c0e00116" x="195.639085" y="307.584" style="stroke: #000000; stroke-width: 0.8"/>
      </g>
     </g>
     <g id="text_4">
      <!-- 750 -->
      <g transform="translate(186.095335 322.182437) scale(0.1 -0.1)">
       <defs>
        <path id="DejaVuSans-37" d="M 525 4666 
L 3525 4666 
L 3525 4397 
L 1831 0 
L 1172 0 
L 2766 4134 
L 525 4134 
L 525 4666 
z
" transform="scale(0.015625)"/>
       </defs>
       <use xlink:href="#DejaVuSans-37"/>
       <use xlink:href="#DejaVuSans-35" x="63.623047"/>
       <use xlink:href="#DejaVuSans-30" x="127.246094"/>
      </g>
     </g>
    </g>
    <g id="xtick_5">
     <g id="line2d_5">
      <g>
       <use xlink:href="#m02c0e00116" x="236.241204" y="307.584" style="stroke: #000000; stroke-width: 0.8"/>
      </g>
     </g>
     <g id="text_5">
      <!-- 1000 -->
      <g transform="translate(223.516204 322.182437) scale(0.1 -0.1)">
       <defs>
        <path id="DejaVuSans-31" d="M 794 531 
L 1825 531 
L 1825 4091 
L 703 3866 
L 703 4441 
L 1819 4666 
L 2450 4666 
L 2450 531 
L 3481 531 
L 3481 0 
L 794 0 
L 794 531 
z
" transform="scale(0.015625)"/>
       </defs>
       <use xlink:href="#DejaVuSans-31"/>
       <use xlink:href="#DejaVuSans-30" x="63.623047"/>
       <use xlink:href="#DejaVuSans-30" x="127.246094"/>
       <use xlink:href="#DejaVuSans-30" x="190.869141"/>
      </g>
     </g>
    </g>
    <g id="xtick_6">
     <g id="line2d_6">
      <g>
       <use xlink:href="#m02c0e00116" x="276.843323" y="307.584" style="stroke: #000000; stroke-width: 0.8"/>
      </g>
     </g>
     <g id="text_6">
      <!-- 1250 -->
      <g transform="translate(264.118323 322.182437) scale(0.1 -0.1)">
       <use xlink:href="#DejaVuSans-31"/>
       <use xlink:href="#DejaVuSans-32" x="63.623047"/>
       <use xlink:href="#DejaVuSans-35" x="127.246094"/>
       <use xlink:href="#DejaVuSans-30" x="190.869141"/>
      </g>
     </g>
    </g>
    <g id="xtick_7">
     <g id="line2d_7">
      <g>
       <use xlink:href="#m02c0e00116" x="317.445443" y="307.584" style="stroke: #000000; stroke-width: 0.8"/>
      </g>
     </g>
     <g id="text_7">
      <!-- 1500 -->
      <g transform="translate(304.720443 322.182437) scale(0.1 -0.1)">
       <use xlink:href="#DejaVuSans-31"/>
       <use xlink:href="#DejaVuSans-35" x="63.623047"/>
       <use xlink:href="#DejaVuSans-30" x="127.246094"/>
       <use xlink:href="#DejaVuSans-30" x="190.869141"/>
      </g>
     </g>
    </g>
    <g id="xtick_8">
     <g id="line2d_8">
      <g>
       <use xlink:href="#m02c0e00116" x="358.047562" y="307.584" style="stroke: #000000; stroke-width: 0.8"/>
      </g>
     </g>
     <g id="text_8">
      <!-- 1750 -->
      <g transform="translate(345.322562 322.182437) scale(0.1 -0.1)">
       <use xlink:href="#DejaVuSans-31"/>
       <use xlink:href="#DejaVuSans-37" x="63.623047"/>
       <use xlink:href="#DejaVuSans-35" x="127.246094"/>
       <use xlink:href="#DejaVuSans-30" x="190.869141"/>
      </g>
     </g>
    </g>
    <g id="xtick_9">
     <g id="line2d_9">
      <g>
       <use xlink:href="#m02c0e00116" x="398.649681" y="307.584" style="stroke: #000000; stroke-width: 0.8"/>
      </g>
     </g>
     <g id="text_9">
      <!-- 2000 -->
      <g transform="translate(385.924681 322.182437) scale(0.1 -0.1)">
       <use xlink:href="#DejaVuSans-32"/>
       <use xlink:href="#DejaVuSans-30" x="63.623047"/>
       <use xlink:href="#DejaVuSans-30" x="127.246094"/>
       <use xlink:href="#DejaVuSans-30" x="190.869141"/>
      </g>
     </g>
    </g>
   </g>
   <g id="matplotlib.axis_2">
    <g id="ytick_1">
     <g id="line2d_10">
      <defs>
       <path id="m944d65436e" d="M 0 0 
L -3.5 0 
" style="stroke: #000000; stroke-width: 0.8"/>
      </defs>
      <g>
       <use xlink:href="#m944d65436e" x="57.6" y="301.59759" style="stroke: #000000; stroke-width: 0.8"/>
      </g>
     </g>
     <g id="text_10">
      <!-- 0 -->
      <g transform="translate(44.2375 305.396808) scale(0.1 -0.1)">
       <use xlink:href="#DejaVuSans-30"/>
      </g>
     </g>
    </g>
    <g id="ytick_2">
     <g id="line2d_11">
      <g>
       <use xlink:href="#m944d65436e" x="57.6" y="248.997735" style="stroke: #000000; stroke-width: 0.8"/>
      </g>
     </g>
     <g id="text_11">
      <!-- 100 -->
      <g transform="translate(31.5125 252.796954) scale(0.1 -0.1)">
       <use xlink:href="#DejaVuSans-31"/>
       <use xlink:href="#DejaVuSans-30" x="63.623047"/>
       <use xlink:href="#DejaVuSans-30" x="127.246094"/>
      </g>
     </g>
    </g>
    <g id="ytick_3">
     <g id="line2d_12">
      <g>
       <use xlink:href="#m944d65436e" x="57.6" y="196.397881" style="stroke: #000000; stroke-width: 0.8"/>
      </g>
     </g>
     <g id="text_12">
      <!-- 200 -->
      <g transform="translate(31.5125 200.1971) scale(0.1 -0.1)">
       <use xlink:href="#DejaVuSans-32"/>
       <use xlink:href="#DejaVuSans-30" x="63.623047"/>
       <use xlink:href="#DejaVuSans-30" x="127.246094"/>
      </g>
     </g>
    </g>
    <g id="ytick_4">
     <g id="line2d_13">
      <g>
       <use xlink:href="#m944d65436e" x="57.6" y="143.798027" style="stroke: #000000; stroke-width: 0.8"/>
      </g>
     </g>
     <g id="text_13">
      <!-- 300 -->
      <g transform="translate(31.5125 147.597245) scale(0.1 -0.1)">
       <defs>
        <path id="DejaVuSans-33" d="M 2597 2516 
Q 3050 2419 3304 2112 
Q 3559 1806 3559 1356 
Q 3559 666 3084 287 
Q 2609 -91 1734 -91 
Q 1441 -91 1130 -33 
Q 819 25 488 141 
L 488 750 
Q 750 597 1062 519 
Q 1375 441 1716 441 
Q 2309 441 2620 675 
Q 2931 909 2931 1356 
Q 2931 1769 2642 2001 
Q 2353 2234 1838 2234 
L 1294 2234 
L 1294 2753 
L 1863 2753 
Q 2328 2753 2575 2939 
Q 2822 3125 2822 3475 
Q 2822 3834 2567 4026 
Q 2313 4219 1838 4219 
Q 1578 4219 1281 4162 
Q 984 4106 628 3988 
L 628 4550 
Q 988 4650 1302 4700 
Q 1616 4750 1894 4750 
Q 2613 4750 3031 4423 
Q 3450 4097 3450 3541 
Q 3450 3153 3228 2886 
Q 3006 2619 2597 2516 
z
" transform="scale(0.015625)"/>
       </defs>
       <use xlink:href="#DejaVuSans-33"/>
       <use xlink:href="#DejaVuSans-30" x="63.623047"/>
       <use xlink:href="#DejaVuSans-30" x="127.246094"/>
      </g>
     </g>
    </g>
    <g id="ytick_5">
     <g id="line2d_14">
      <g>
       <use xlink:href="#m944d65436e" x="57.6" y="91.198172" style="stroke: #000000; stroke-width: 0.8"/>
      </g>
     </g>
     <g id="text_14">
      <!-- 400 -->
      <g transform="translate(31.5125 94.997391) scale(0.1 -0.1)">
       <defs>
        <path id="DejaVuSans-34" d="M 2419 4116 
L 825 1625 
L 2419 1625 
L 2419 4116 
z
M 2253 4666 
L 3047 4666 
L 3047 1625 
L 3713 1625 
L 3713 1100 
L 3047 1100 
L 3047 0 
L 2419 0 
L 2419 1100 
L 313 1100 
L 313 1709 
L 2253 4666 
z
" transform="scale(0.015625)"/>
       </defs>
       <use xlink:href="#DejaVuSans-34"/>
       <use xlink:href="#DejaVuSans-30" x="63.623047"/>
       <use xlink:href="#DejaVuSans-30" x="127.246094"/>
      </g>
     </g>
    </g>
   </g>
   <g id="line2d_15">
    <path d="M 73.832727 125.951145 
L 80.653883 128.424611 
L 104.852746 136.682985 
L 118.007833 141.062453 
L 126.940299 143.807765 
L 134.898315 146.027052 
L 143.343555 148.140023 
L 169.49132 154.535399 
L 184.757717 158.632492 
L 198.237621 162.448536 
L 235.59157 173.267641 
L 245.011262 175.632697 
L 254.268545 177.725802 
L 264.013054 179.69868 
L 274.244788 181.538043 
L 284.963747 183.236449 
L 296.332341 184.811469 
L 308.512976 186.273731 
L 321.668063 187.624199 
L 337.259277 188.994026 
L 355.449026 190.363014 
L 376.724537 191.736093 
L 398.487273 192.932399 
L 398.487273 192.932399 
" clip-path="url(#pafa8be8f41)" style="fill: none; stroke: #1f77b4; stroke-width: 1.5; stroke-linecap: square"/>
   </g>
   <g id="line2d_16">
    <path d="M 73.832727 129.036827 
L 83.252419 133.325775 
L 89.911166 136.601966 
L 96.569914 140.131899 
L 103.715887 144.175383 
L 111.673902 148.939324 
L 120.44396 154.454736 
L 132.949413 162.607259 
L 147.07895 171.76637 
L 155.036966 176.650004 
L 162.182939 180.778138 
L 169.166503 184.5583 
L 176.312476 188.172003 
L 183.620858 191.616238 
L 191.091648 194.888057 
L 198.562438 197.91558 
L 205.870819 200.640641 
L 213.179201 203.133131 
L 220.64999 205.449438 
L 228.445597 207.634012 
L 236.72843 209.72084 
L 245.660896 211.736565 
L 255.567813 213.737947 
L 267.261223 215.863336 
L 281.228352 218.167228 
L 296.819566 220.513202 
L 326.540317 224.674587 
L 340.507446 226.371677 
L 355.449026 227.958262 
L 372.501916 229.539607 
L 391.990934 231.11736 
L 398.487273 231.599359 
L 398.487273 231.599359 
" clip-path="url(#pafa8be8f41)" style="fill: none; stroke: #ff7f0e; stroke-width: 1.5; stroke-linecap: square"/>
   </g>
   <g id="line2d_17">
    <path d="M 73.832727 120.895937 
L 79.517024 124.5884 
L 83.414827 127.400206 
L 87.799856 130.849428 
L 94.296195 136.2894 
L 101.766985 142.480134 
L 106.152014 145.82361 
L 110.374635 148.758873 
L 116.22134 152.514173 
L 127.589933 159.544527 
L 144.805232 170.136362 
L 153.412881 175.783671 
L 167.055193 184.697047 
L 181.347139 193.746836 
L 191.741282 200.086044 
L 200.186522 204.982596 
L 208.306946 209.436961 
L 216.589779 213.725545 
L 224.872611 217.762421 
L 232.830626 221.395071 
L 240.463825 224.640206 
L 248.097023 227.644866 
L 255.89263 230.470534 
L 263.850645 233.115729 
L 272.295886 235.680856 
L 281.228352 238.160711 
L 290.810452 240.587097 
L 302.666271 243.343182 
L 321.668063 247.515491 
L 332.874248 249.748089 
L 343.918024 251.717905 
L 355.449026 253.544443 
L 367.792071 255.270912 
L 381.271974 256.929571 
L 396.538371 258.580021 
L 398.487273 258.776394 
L 398.487273 258.776394 
" clip-path="url(#pafa8be8f41)" style="fill: none; stroke: #2ca02c; stroke-width: 1.5; stroke-linecap: square"/>
   </g>
   <g id="line2d_18">
    <path d="M 73.832727 126.780379 
L 79.192207 130.806362 
L 85.201321 135.371804 
L 90.073575 139.379947 
L 98.193999 146.430705 
L 103.715887 151.061085 
L 109.400184 155.511555 
L 121.58082 164.980361 
L 130.513286 172.289227 
L 140.420203 180.687763 
L 156.661051 194.51077 
L 163.807024 200.246449 
L 170.465771 205.30974 
L 177.286927 210.213158 
L 184.270492 214.955148 
L 191.741282 219.752947 
L 200.186522 224.902543 
L 210.093439 230.674648 
L 219.837948 236.112485 
L 226.983921 239.848168 
L 233.642669 243.079108 
L 240.301416 246.066829 
L 247.122572 248.883901 
L 253.943728 251.463377 
L 260.927293 253.869486 
L 268.073266 256.100607 
L 275.706464 258.251005 
L 284.151705 260.394501 
L 293.571397 262.55243 
L 303.803131 264.665964 
L 314.684499 266.685407 
L 326.702726 268.685682 
L 338.883362 270.488917 
L 352.038448 272.205207 
L 370.553015 274.360324 
L 386.631454 276.097308 
L 398.487273 277.246176 
L 398.487273 277.246176 
" clip-path="url(#pafa8be8f41)" style="fill: none; stroke: #d62728; stroke-width: 1.5; stroke-linecap: square"/>
   </g>
   <g id="line2d_19">
    <path d="M 73.832727 123.421129 
L 78.217756 127.794617 
L 86.013363 135.504115 
L 90.723209 140.534134 
L 96.082689 146.588301 
L 102.091802 153.715666 
L 113.947621 167.900586 
L 122.230453 177.27181 
L 136.035174 192.499019 
L 147.566176 204.967717 
L 154.874557 212.559777 
L 160.721262 218.322665 
L 166.080742 223.294732 
L 171.277813 227.812717 
L 176.312476 231.893012 
L 181.184731 235.555692 
L 186.056985 238.943423 
L 191.254056 242.282557 
L 196.938353 245.660386 
L 202.947466 248.969638 
L 208.95658 252.031333 
L 214.965694 254.846603 
L 221.137216 257.493837 
L 228.12078 260.242879 
L 236.078796 263.136624 
L 244.524037 265.972365 
L 253.618911 268.791661 
L 262.064152 271.180994 
L 270.346984 273.291908 
L 278.954634 275.255066 
L 288.536734 277.207791 
L 298.443651 279.001392 
L 308.837793 280.653966 
L 326.2155 283.126928 
L 337.584094 284.496598 
L 364.868718 287.461336 
L 378.348622 288.635145 
L 391.990934 289.608542 
L 398.487273 290.002942 
L 398.487273 290.002942 
" clip-path="url(#pafa8be8f41)" style="fill: none; stroke: #9467bd; stroke-width: 1.5; stroke-linecap: square"/>
   </g>
   <g id="line2d_20">
    <path d="M 73.832727 124.381915 
L 79.354615 133.878327 
L 83.414827 141.390133 
L 88.124673 149.997572 
L 99.818084 170.78775 
L 127.589933 222.730532 
L 131.974962 230.316933 
L 136.197582 237.180669 
L 140.257794 243.357525 
L 143.993189 248.649681 
L 147.566176 253.33677 
L 150.976754 257.453419 
L 154.387332 261.215491 
L 157.635501 264.474662 
L 161.046079 267.575891 
L 164.456657 270.377036 
L 168.029644 273.024292 
L 171.765039 275.515777 
L 175.825251 277.948353 
L 180.047871 280.218818 
L 184.4329 282.33121 
L 188.980337 284.273 
L 193.365366 285.906866 
L 197.912804 287.365448 
L 202.785058 288.688719 
L 207.982129 289.863912 
L 213.341609 290.851429 
L 219.188314 291.693723 
L 226.171879 292.463374 
L 234.454711 293.144944 
L 244.524037 293.744467 
L 257.191898 294.266002 
L 271.321435 294.630439 
L 291.947312 294.908489 
L 327.189951 295.13742 
L 392.802976 295.311117 
L 398.487273 295.319907 
L 398.487273 295.319907 
" clip-path="url(#pafa8be8f41)" style="fill: none; stroke: #8c564b; stroke-width: 1.5; stroke-linecap: square"/>
   </g>
   <g id="line2d_21">
    <path d="M 73.832727 122.219236 
L 79.841841 145.537491 
L 82.602785 155.92972 
L 85.363729 165.329366 
L 89.261533 177.889327 
L 94.133787 193.662392 
L 98.843633 209.632807 
L 103.228662 224.33397 
L 106.476831 234.42161 
L 109.562592 243.289183 
L 112.323536 250.565168 
L 114.922072 256.802042 
L 117.358199 262.07646 
L 119.631918 266.483886 
L 121.905636 270.402573 
L 124.179355 273.861025 
L 126.453074 276.899389 
L 128.726792 279.560307 
L 131.000511 281.884266 
L 133.436638 284.043424 
L 135.872765 285.901769 
L 138.471301 287.593094 
L 141.069837 289.021562 
L 143.830781 290.289044 
L 146.754133 291.38196 
L 149.839894 292.292903 
L 153.250473 293.069988 
L 157.310684 293.755827 
L 161.858122 294.292633 
L 167.217602 294.690784 
L 173.876349 294.954104 
L 185.407351 295.157245 
L 208.794172 295.312027 
L 265.47473 295.417124 
L 398.487273 295.466814 
L 398.487273 295.466814 
" clip-path="url(#pafa8be8f41)" style="fill: none; stroke: #e377c2; stroke-width: 1.5; stroke-linecap: square"/>
   </g>
   <g id="line2d_22">
    <path d="M 73.832727 123.513378 
L 74.807178 138.384705 
L 75.944037 151.952502 
L 78.055348 173.511221 
L 80.9787 201.284886 
L 83.252419 220.841415 
L 85.038912 234.251504 
L 86.662997 244.675843 
L 88.124673 252.676754 
L 89.58635 259.468871 
L 91.048026 265.163647 
L 92.509702 269.908098 
L 93.971378 273.863441 
L 95.433055 277.175151 
L 96.894731 279.965647 
L 98.518816 282.576543 
L 100.142901 284.776958 
L 101.929394 286.812731 
L 103.715887 288.501171 
L 105.664789 290.017148 
L 107.61369 291.2526 
L 109.725001 292.323103 
L 111.998719 293.212323 
L 114.434847 293.916632 
L 117.195791 294.474214 
L 120.281552 294.862781 
L 124.179355 295.097787 
L 131.325328 295.265709 
L 147.890993 295.385471 
L 197.587987 295.457408 
L 398.487273 295.484569 
L 398.487273 295.484569 
" clip-path="url(#pafa8be8f41)" style="fill: none; stroke: #7f7f7f; stroke-width: 1.5; stroke-linecap: square"/>
   </g>
   <g id="line2d_23">
    <path d="M 73.832727 91.333937 
L 74.482361 129.530621 
L 75.131995 155.842344 
L 76.106446 185.281457 
L 77.080897 208.543344 
L 78.055348 226.447176 
L 79.029799 240.050658 
L 80.004249 250.358947 
L 80.9787 258.221736 
L 81.953151 264.394438 
L 82.927602 269.318414 
L 83.902053 273.241305 
L 85.038912 276.878481 
L 86.175772 279.801667 
L 87.475039 282.54754 
L 88.936716 285.089953 
L 90.398392 287.187117 
L 92.022477 289.106831 
L 93.646561 290.664755 
L 95.270646 291.912237 
L 96.894731 292.890192 
L 98.681224 293.70139 
L 100.630126 294.330552 
L 102.903845 294.809847 
L 105.339972 295.081748 
L 109.237775 295.257324 
L 118.007833 295.3767 
L 144.642823 295.451967 
L 275.381647 295.484181 
L 398.487273 295.48706 
L 398.487273 295.48706 
" clip-path="url(#pafa8be8f41)" style="fill: none; stroke: #bcbd22; stroke-width: 1.5; stroke-linecap: square"/>
   </g>
   <g id="line2d_24">
    <path d="M 73.832727 53.568 
L 74.319953 134.458189 
L 74.807178 177.659119 
L 75.456812 211.288318 
L 76.106446 232.915529 
L 76.75608 246.85767 
L 77.568122 258.524023 
L 78.217756 265.181623 
L 78.86739 269.991674 
L 79.679432 274.384837 
L 80.653883 278.527902 
L 81.790743 282.440817 
L 82.927602 285.588441 
L 84.064461 288.125675 
L 85.201321 290.129158 
L 86.33818 291.664959 
L 87.475039 292.813018 
L 88.611899 293.64982 
L 89.911166 294.315208 
L 91.372843 294.797903 
L 92.996928 295.098211 
L 95.433055 295.282118 
L 100.630126 295.390124 
L 118.819875 295.457033 
L 233.48026 295.482397 
L 243.874403 295.485979 
L 398.487273 295.488 
L 398.487273 295.488 
" clip-path="url(#pafa8be8f41)" style="fill: none; stroke: #17becf; stroke-width: 1.5; stroke-linecap: square"/>
   </g>
   <g id="patch_3">
    <path d="M 57.6 307.584 
L 57.6 41.472 
" style="fill: none; stroke: #000000; stroke-width: 0.8; stroke-linejoin: miter; stroke-linecap: square"/>
   </g>
   <g id="patch_4">
    <path d="M 414.72 307.584 
L 414.72 41.472 
" style="fill: none; stroke: #000000; stroke-width: 0.8; stroke-linejoin: miter; stroke-linecap: square"/>
   </g>
   <g id="patch_5">
    <path d="M 57.6 307.584 
L 414.72 307.584 
" style="fill: none; stroke: #000000; stroke-width: 0.8; stroke-linejoin: miter; stroke-linecap: square"/>
   </g>
   <g id="patch_6">
    <path d="M 57.6 41.472 
L 414.72 41.472 
" style="fill: none; stroke: #000000; stroke-width: 0.8; stroke-linejoin: miter; stroke-linecap: square"/>
   </g>
   <g id="text_15">
    <!-- Loss over epochs for data "There was a big black cat." -->
    <g transform="translate(72.850313 35.472) scale(0.12 -0.12)">
     <defs>
      <path id="DejaVuSans-4c" d="M 628 4666 
L 1259 4666 
L 1259 531 
L 3531 531 
L 3531 0 
L 628 0 
L 628 4666 
z
" transform="scale(0.015625)"/>
      <path id="DejaVuSans-6f" d="M 1959 3097 
Q 1497 3097 1228 2736 
Q 959 2375 959 1747 
Q 959 1119 1226 758 
Q 1494 397 1959 397 
Q 2419 397 2687 759 
Q 2956 1122 2956 1747 
Q 2956 2369 2687 2733 
Q 2419 3097 1959 3097 
z
M 1959 3584 
Q 2709 3584 3137 3096 
Q 3566 2609 3566 1747 
Q 3566 888 3137 398 
Q 2709 -91 1959 -91 
Q 1206 -91 779 398 
Q 353 888 353 1747 
Q 353 2609 779 3096 
Q 1206 3584 1959 3584 
z
" transform="scale(0.015625)"/>
      <path id="DejaVuSans-73" d="M 2834 3397 
L 2834 2853 
Q 2591 2978 2328 3040 
Q 2066 3103 1784 3103 
Q 1356 3103 1142 2972 
Q 928 2841 928 2578 
Q 928 2378 1081 2264 
Q 1234 2150 1697 2047 
L 1894 2003 
Q 2506 1872 2764 1633 
Q 3022 1394 3022 966 
Q 3022 478 2636 193 
Q 2250 -91 1575 -91 
Q 1294 -91 989 -36 
Q 684 19 347 128 
L 347 722 
Q 666 556 975 473 
Q 1284 391 1588 391 
Q 1994 391 2212 530 
Q 2431 669 2431 922 
Q 2431 1156 2273 1281 
Q 2116 1406 1581 1522 
L 1381 1569 
Q 847 1681 609 1914 
Q 372 2147 372 2553 
Q 372 3047 722 3315 
Q 1072 3584 1716 3584 
Q 2034 3584 2315 3537 
Q 2597 3491 2834 3397 
z
" transform="scale(0.015625)"/>
      <path id="DejaVuSans-20" transform="scale(0.015625)"/>
      <path id="DejaVuSans-76" d="M 191 3500 
L 800 3500 
L 1894 563 
L 2988 3500 
L 3597 3500 
L 2284 0 
L 1503 0 
L 191 3500 
z
" transform="scale(0.015625)"/>
      <path id="DejaVuSans-65" d="M 3597 1894 
L 3597 1613 
L 953 1613 
Q 991 1019 1311 708 
Q 1631 397 2203 397 
Q 2534 397 2845 478 
Q 3156 559 3463 722 
L 3463 178 
Q 3153 47 2828 -22 
Q 2503 -91 2169 -91 
Q 1331 -91 842 396 
Q 353 884 353 1716 
Q 353 2575 817 3079 
Q 1281 3584 2069 3584 
Q 2775 3584 3186 3129 
Q 3597 2675 3597 1894 
z
M 3022 2063 
Q 3016 2534 2758 2815 
Q 2500 3097 2075 3097 
Q 1594 3097 1305 2825 
Q 1016 2553 972 2059 
L 3022 2063 
z
" transform="scale(0.015625)"/>
      <path id="DejaVuSans-72" d="M 2631 2963 
Q 2534 3019 2420 3045 
Q 2306 3072 2169 3072 
Q 1681 3072 1420 2755 
Q 1159 2438 1159 1844 
L 1159 0 
L 581 0 
L 581 3500 
L 1159 3500 
L 1159 2956 
Q 1341 3275 1631 3429 
Q 1922 3584 2338 3584 
Q 2397 3584 2469 3576 
Q 2541 3569 2628 3553 
L 2631 2963 
z
" transform="scale(0.015625)"/>
      <path id="DejaVuSans-70" d="M 1159 525 
L 1159 -1331 
L 581 -1331 
L 581 3500 
L 1159 3500 
L 1159 2969 
Q 1341 3281 1617 3432 
Q 1894 3584 2278 3584 
Q 2916 3584 3314 3078 
Q 3713 2572 3713 1747 
Q 3713 922 3314 415 
Q 2916 -91 2278 -91 
Q 1894 -91 1617 61 
Q 1341 213 1159 525 
z
M 3116 1747 
Q 3116 2381 2855 2742 
Q 2594 3103 2138 3103 
Q 1681 3103 1420 2742 
Q 1159 2381 1159 1747 
Q 1159 1113 1420 752 
Q 1681 391 2138 391 
Q 2594 391 2855 752 
Q 3116 1113 3116 1747 
z
" transform="scale(0.015625)"/>
      <path id="DejaVuSans-63" d="M 3122 3366 
L 3122 2828 
Q 2878 2963 2633 3030 
Q 2388 3097 2138 3097 
Q 1578 3097 1268 2742 
Q 959 2388 959 1747 
Q 959 1106 1268 751 
Q 1578 397 2138 397 
Q 2388 397 2633 464 
Q 2878 531 3122 666 
L 3122 134 
Q 2881 22 2623 -34 
Q 2366 -91 2075 -91 
Q 1284 -91 818 406 
Q 353 903 353 1747 
Q 353 2603 823 3093 
Q 1294 3584 2113 3584 
Q 2378 3584 2631 3529 
Q 2884 3475 3122 3366 
z
" transform="scale(0.015625)"/>
      <path id="DejaVuSans-68" d="M 3513 2113 
L 3513 0 
L 2938 0 
L 2938 2094 
Q 2938 2591 2744 2837 
Q 2550 3084 2163 3084 
Q 1697 3084 1428 2787 
Q 1159 2491 1159 1978 
L 1159 0 
L 581 0 
L 581 4863 
L 1159 4863 
L 1159 2956 
Q 1366 3272 1645 3428 
Q 1925 3584 2291 3584 
Q 2894 3584 3203 3211 
Q 3513 2838 3513 2113 
z
" transform="scale(0.015625)"/>
      <path id="DejaVuSans-66" d="M 2375 4863 
L 2375 4384 
L 1825 4384 
Q 1516 4384 1395 4259 
Q 1275 4134 1275 3809 
L 1275 3500 
L 2222 3500 
L 2222 3053 
L 1275 3053 
L 1275 0 
L 697 0 
L 697 3053 
L 147 3053 
L 147 3500 
L 697 3500 
L 697 3744 
Q 697 4328 969 4595 
Q 1241 4863 1831 4863 
L 2375 4863 
z
" transform="scale(0.015625)"/>
      <path id="DejaVuSans-64" d="M 2906 2969 
L 2906 4863 
L 3481 4863 
L 3481 0 
L 2906 0 
L 2906 525 
Q 2725 213 2448 61 
Q 2172 -91 1784 -91 
Q 1150 -91 751 415 
Q 353 922 353 1747 
Q 353 2572 751 3078 
Q 1150 3584 1784 3584 
Q 2172 3584 2448 3432 
Q 2725 3281 2906 2969 
z
M 947 1747 
Q 947 1113 1208 752 
Q 1469 391 1925 391 
Q 2381 391 2643 752 
Q 2906 1113 2906 1747 
Q 2906 2381 2643 2742 
Q 2381 3103 1925 3103 
Q 1469 3103 1208 2742 
Q 947 2381 947 1747 
z
" transform="scale(0.015625)"/>
      <path id="DejaVuSans-61" d="M 2194 1759 
Q 1497 1759 1228 1600 
Q 959 1441 959 1056 
Q 959 750 1161 570 
Q 1363 391 1709 391 
Q 2188 391 2477 730 
Q 2766 1069 2766 1631 
L 2766 1759 
L 2194 1759 
z
M 3341 1997 
L 3341 0 
L 2766 0 
L 2766 531 
Q 2569 213 2275 61 
Q 1981 -91 1556 -91 
Q 1019 -91 701 211 
Q 384 513 384 1019 
Q 384 1609 779 1909 
Q 1175 2209 1959 2209 
L 2766 2209 
L 2766 2266 
Q 2766 2663 2505 2880 
Q 2244 3097 1772 3097 
Q 1472 3097 1187 3025 
Q 903 2953 641 2809 
L 641 3341 
Q 956 3463 1253 3523 
Q 1550 3584 1831 3584 
Q 2591 3584 2966 3190 
Q 3341 2797 3341 1997 
z
" transform="scale(0.015625)"/>
      <path id="DejaVuSans-74" d="M 1172 4494 
L 1172 3500 
L 2356 3500 
L 2356 3053 
L 1172 3053 
L 1172 1153 
Q 1172 725 1289 603 
Q 1406 481 1766 481 
L 2356 481 
L 2356 0 
L 1766 0 
Q 1100 0 847 248 
Q 594 497 594 1153 
L 594 3053 
L 172 3053 
L 172 3500 
L 594 3500 
L 594 4494 
L 1172 4494 
z
" transform="scale(0.015625)"/>
      <path id="DejaVuSans-22" d="M 1147 4666 
L 1147 2931 
L 616 2931 
L 616 4666 
L 1147 4666 
z
M 2328 4666 
L 2328 2931 
L 1797 2931 
L 1797 4666 
L 2328 4666 
z
" transform="scale(0.015625)"/>
      <path id="DejaVuSans-54" d="M -19 4666 
L 3928 4666 
L 3928 4134 
L 2272 4134 
L 2272 0 
L 1638 0 
L 1638 4134 
L -19 4134 
L -19 4666 
z
" transform="scale(0.015625)"/>
      <path id="DejaVuSans-77" d="M 269 3500 
L 844 3500 
L 1563 769 
L 2278 3500 
L 2956 3500 
L 3675 769 
L 4391 3500 
L 4966 3500 
L 4050 0 
L 3372 0 
L 2619 2869 
L 1863 0 
L 1184 0 
L 269 3500 
z
" transform="scale(0.015625)"/>
      <path id="DejaVuSans-62" d="M 3116 1747 
Q 3116 2381 2855 2742 
Q 2594 3103 2138 3103 
Q 1681 3103 1420 2742 
Q 1159 2381 1159 1747 
Q 1159 1113 1420 752 
Q 1681 391 2138 391 
Q 2594 391 2855 752 
Q 3116 1113 3116 1747 
z
M 1159 2969 
Q 1341 3281 1617 3432 
Q 1894 3584 2278 3584 
Q 2916 3584 3314 3078 
Q 3713 2572 3713 1747 
Q 3713 922 3314 415 
Q 2916 -91 2278 -91 
Q 1894 -91 1617 61 
Q 1341 213 1159 525 
L 1159 0 
L 581 0 
L 581 4863 
L 1159 4863 
L 1159 2969 
z
" transform="scale(0.015625)"/>
      <path id="DejaVuSans-69" d="M 603 3500 
L 1178 3500 
L 1178 0 
L 603 0 
L 603 3500 
z
M 603 4863 
L 1178 4863 
L 1178 4134 
L 603 4134 
L 603 4863 
z
" transform="scale(0.015625)"/>
      <path id="DejaVuSans-67" d="M 2906 1791 
Q 2906 2416 2648 2759 
Q 2391 3103 1925 3103 
Q 1463 3103 1205 2759 
Q 947 2416 947 1791 
Q 947 1169 1205 825 
Q 1463 481 1925 481 
Q 2391 481 2648 825 
Q 2906 1169 2906 1791 
z
M 3481 434 
Q 3481 -459 3084 -895 
Q 2688 -1331 1869 -1331 
Q 1566 -1331 1297 -1286 
Q 1028 -1241 775 -1147 
L 775 -588 
Q 1028 -725 1275 -790 
Q 1522 -856 1778 -856 
Q 2344 -856 2625 -561 
Q 2906 -266 2906 331 
L 2906 616 
Q 2728 306 2450 153 
Q 2172 0 1784 0 
Q 1141 0 747 490 
Q 353 981 353 1791 
Q 353 2603 747 3093 
Q 1141 3584 1784 3584 
Q 2172 3584 2450 3431 
Q 2728 3278 2906 2969 
L 2906 3500 
L 3481 3500 
L 3481 434 
z
" transform="scale(0.015625)"/>
      <path id="DejaVuSans-6c" d="M 603 4863 
L 1178 4863 
L 1178 0 
L 603 0 
L 603 4863 
z
" transform="scale(0.015625)"/>
      <path id="DejaVuSans-6b" d="M 581 4863 
L 1159 4863 
L 1159 1991 
L 2875 3500 
L 3609 3500 
L 1753 1863 
L 3688 0 
L 2938 0 
L 1159 1709 
L 1159 0 
L 581 0 
L 581 4863 
z
" transform="scale(0.015625)"/>
      <path id="DejaVuSans-2e" d="M 684 794 
L 1344 794 
L 1344 0 
L 684 0 
L 684 794 
z
" transform="scale(0.015625)"/>
     </defs>
     <use xlink:href="#DejaVuSans-4c"/>
     <use xlink:href="#DejaVuSans-6f" x="53.962891"/>
     <use xlink:href="#DejaVuSans-73" x="115.144531"/>
     <use xlink:href="#DejaVuSans-73" x="167.244141"/>
     <use xlink:href="#DejaVuSans-20" x="219.34375"/>
     <use xlink:href="#DejaVuSans-6f" x="251.130859"/>
     <use xlink:href="#DejaVuSans-76" x="312.3125"/>
     <use xlink:href="#DejaVuSans-65" x="371.492188"/>
     <use xlink:href="#DejaVuSans-72" x="433.015625"/>
     <use xlink:href="#DejaVuSans-20" x="474.128906"/>
     <use xlink:href="#DejaVuSans-65" x="505.916016"/>
     <use xlink:href="#DejaVuSans-70" x="567.439453"/>
     <use xlink:href="#DejaVuSans-6f" x="630.916016"/>
     <use xlink:href="#DejaVuSans-63" x="692.097656"/>
     <use xlink:href="#DejaVuSans-68" x="747.078125"/>
     <use xlink:href="#DejaVuSans-73" x="810.457031"/>
     <use xlink:href="#DejaVuSans-20" x="862.556641"/>
     <use xlink:href="#DejaVuSans-66" x="894.34375"/>
     <use xlink:href="#DejaVuSans-6f" x="929.548828"/>
     <use xlink:href="#DejaVuSans-72" x="990.730469"/>
     <use xlink:href="#DejaVuSans-20" x="1031.84375"/>
     <use xlink:href="#DejaVuSans-64" x="1063.630859"/>
     <use xlink:href="#DejaVuSans-61" x="1127.107422"/>
     <use xlink:href="#DejaVuSans-74" x="1188.386719"/>
     <use xlink:href="#DejaVuSans-61" x="1227.595703"/>
     <use xlink:href="#DejaVuSans-20" x="1288.875"/>
     <use xlink:href="#DejaVuSans-22" x="1320.662109"/>
     <use xlink:href="#DejaVuSans-54" x="1366.658203"/>
     <use xlink:href="#DejaVuSans-68" x="1427.742188"/>
     <use xlink:href="#DejaVuSans-65" x="1491.121094"/>
     <use xlink:href="#DejaVuSans-72" x="1552.644531"/>
     <use xlink:href="#DejaVuSans-65" x="1591.507812"/>
     <use xlink:href="#DejaVuSans-20" x="1653.03125"/>
     <use xlink:href="#DejaVuSans-77" x="1684.818359"/>
     <use xlink:href="#DejaVuSans-61" x="1766.605469"/>
     <use xlink:href="#DejaVuSans-73" x="1827.884766"/>
     <use xlink:href="#DejaVuSans-20" x="1879.984375"/>
     <use xlink:href="#DejaVuSans-61" x="1911.771484"/>
     <use xlink:href="#DejaVuSans-20" x="1973.050781"/>
     <use xlink:href="#DejaVuSans-62" x="2004.837891"/>
     <use xlink:href="#DejaVuSans-69" x="2068.314453"/>
     <use xlink:href="#DejaVuSans-67" x="2096.097656"/>
     <use xlink:href="#DejaVuSans-20" x="2159.574219"/>
     <use xlink:href="#DejaVuSans-62" x="2191.361328"/>
     <use xlink:href="#DejaVuSans-6c" x="2254.837891"/>
     <use xlink:href="#DejaVuSans-61" x="2282.621094"/>
     <use xlink:href="#DejaVuSans-63" x="2343.900391"/>
     <use xlink:href="#DejaVuSans-6b" x="2398.880859"/>
     <use xlink:href="#DejaVuSans-20" x="2456.791016"/>
     <use xlink:href="#DejaVuSans-63" x="2488.578125"/>
     <use xlink:href="#DejaVuSans-61" x="2543.558594"/>
     <use xlink:href="#DejaVuSans-74" x="2604.837891"/>
     <use xlink:href="#DejaVuSans-2e" x="2644.046875"/>
     <use xlink:href="#DejaVuSans-22" x="2675.833984"/>
    </g>
   </g>
   <g id="legend_1">
    <g id="patch_7">
     <path d="M 292.0325 196.25325 
L 407.72 196.25325 
Q 409.72 196.25325 409.72 194.25325 
L 409.72 48.472 
Q 409.72 46.472 407.72 46.472 
L 292.0325 46.472 
Q 290.0325 46.472 290.0325 48.472 
L 290.0325 194.25325 
Q 290.0325 196.25325 292.0325 196.25325 
z
" style="fill: #ffffff; opacity: 0.8; stroke: #cccccc; stroke-linejoin: miter"/>
    </g>
    <g id="line2d_25">
     <path d="M 294.0325 54.570437 
L 304.0325 54.570437 
L 314.0325 54.570437 
" style="fill: none; stroke: #1f77b4; stroke-width: 1.5; stroke-linecap: square"/>
    </g>
    <g id="text_16">
     <!-- Hidden size: 1 -->
     <g transform="translate(322.0325 58.070437) scale(0.1 -0.1)">
      <defs>
       <path id="DejaVuSans-48" d="M 628 4666 
L 1259 4666 
L 1259 2753 
L 3553 2753 
L 3553 4666 
L 4184 4666 
L 4184 0 
L 3553 0 
L 3553 2222 
L 1259 2222 
L 1259 0 
L 628 0 
L 628 4666 
z
" transform="scale(0.015625)"/>
       <path id="DejaVuSans-6e" d="M 3513 2113 
L 3513 0 
L 2938 0 
L 2938 2094 
Q 2938 2591 2744 2837 
Q 2550 3084 2163 3084 
Q 1697 3084 1428 2787 
Q 1159 2491 1159 1978 
L 1159 0 
L 581 0 
L 581 3500 
L 1159 3500 
L 1159 2956 
Q 1366 3272 1645 3428 
Q 1925 3584 2291 3584 
Q 2894 3584 3203 3211 
Q 3513 2838 3513 2113 
z
" transform="scale(0.015625)"/>
       <path id="DejaVuSans-7a" d="M 353 3500 
L 3084 3500 
L 3084 2975 
L 922 459 
L 3084 459 
L 3084 0 
L 275 0 
L 275 525 
L 2438 3041 
L 353 3041 
L 353 3500 
z
" transform="scale(0.015625)"/>
       <path id="DejaVuSans-3a" d="M 750 794 
L 1409 794 
L 1409 0 
L 750 0 
L 750 794 
z
M 750 3309 
L 1409 3309 
L 1409 2516 
L 750 2516 
L 750 3309 
z
" transform="scale(0.015625)"/>
      </defs>
      <use xlink:href="#DejaVuSans-48"/>
      <use xlink:href="#DejaVuSans-69" x="75.195312"/>
      <use xlink:href="#DejaVuSans-64" x="102.978516"/>
      <use xlink:href="#DejaVuSans-64" x="166.455078"/>
      <use xlink:href="#DejaVuSans-65" x="229.931641"/>
      <use xlink:href="#DejaVuSans-6e" x="291.455078"/>
      <use xlink:href="#DejaVuSans-20" x="354.833984"/>
      <use xlink:href="#DejaVuSans-73" x="386.621094"/>
      <use xlink:href="#DejaVuSans-69" x="438.720703"/>
      <use xlink:href="#DejaVuSans-7a" x="466.503906"/>
      <use xlink:href="#DejaVuSans-65" x="518.994141"/>
      <use xlink:href="#DejaVuSans-3a" x="580.517578"/>
      <use xlink:href="#DejaVuSans-20" x="614.208984"/>
      <use xlink:href="#DejaVuSans-31" x="645.996094"/>
     </g>
    </g>
    <g id="line2d_26">
     <path d="M 294.0325 69.248562 
L 304.0325 69.248562 
L 314.0325 69.248562 
" style="fill: none; stroke: #ff7f0e; stroke-width: 1.5; stroke-linecap: square"/>
    </g>
    <g id="text_17">
     <!-- Hidden size: 2 -->
     <g transform="translate(322.0325 72.748562) scale(0.1 -0.1)">
      <use xlink:href="#DejaVuSans-48"/>
      <use xlink:href="#DejaVuSans-69" x="75.195312"/>
      <use xlink:href="#DejaVuSans-64" x="102.978516"/>
      <use xlink:href="#DejaVuSans-64" x="166.455078"/>
      <use xlink:href="#DejaVuSans-65" x="229.931641"/>
      <use xlink:href="#DejaVuSans-6e" x="291.455078"/>
      <use xlink:href="#DejaVuSans-20" x="354.833984"/>
      <use xlink:href="#DejaVuSans-73" x="386.621094"/>
      <use xlink:href="#DejaVuSans-69" x="438.720703"/>
      <use xlink:href="#DejaVuSans-7a" x="466.503906"/>
      <use xlink:href="#DejaVuSans-65" x="518.994141"/>
      <use xlink:href="#DejaVuSans-3a" x="580.517578"/>
      <use xlink:href="#DejaVuSans-20" x="614.208984"/>
      <use xlink:href="#DejaVuSans-32" x="645.996094"/>
     </g>
    </g>
    <g id="line2d_27">
     <path d="M 294.0325 83.926688 
L 304.0325 83.926688 
L 314.0325 83.926688 
" style="fill: none; stroke: #2ca02c; stroke-width: 1.5; stroke-linecap: square"/>
    </g>
    <g id="text_18">
     <!-- Hidden size: 3 -->
     <g transform="translate(322.0325 87.426688) scale(0.1 -0.1)">
      <use xlink:href="#DejaVuSans-48"/>
      <use xlink:href="#DejaVuSans-69" x="75.195312"/>
      <use xlink:href="#DejaVuSans-64" x="102.978516"/>
      <use xlink:href="#DejaVuSans-64" x="166.455078"/>
      <use xlink:href="#DejaVuSans-65" x="229.931641"/>
      <use xlink:href="#DejaVuSans-6e" x="291.455078"/>
      <use xlink:href="#DejaVuSans-20" x="354.833984"/>
      <use xlink:href="#DejaVuSans-73" x="386.621094"/>
      <use xlink:href="#DejaVuSans-69" x="438.720703"/>
      <use xlink:href="#DejaVuSans-7a" x="466.503906"/>
      <use xlink:href="#DejaVuSans-65" x="518.994141"/>
      <use xlink:href="#DejaVuSans-3a" x="580.517578"/>
      <use xlink:href="#DejaVuSans-20" x="614.208984"/>
      <use xlink:href="#DejaVuSans-33" x="645.996094"/>
     </g>
    </g>
    <g id="line2d_28">
     <path d="M 294.0325 98.604812 
L 304.0325 98.604812 
L 314.0325 98.604812 
" style="fill: none; stroke: #d62728; stroke-width: 1.5; stroke-linecap: square"/>
    </g>
    <g id="text_19">
     <!-- Hidden size: 4 -->
     <g transform="translate(322.0325 102.104812) scale(0.1 -0.1)">
      <use xlink:href="#DejaVuSans-48"/>
      <use xlink:href="#DejaVuSans-69" x="75.195312"/>
      <use xlink:href="#DejaVuSans-64" x="102.978516"/>
      <use xlink:href="#DejaVuSans-64" x="166.455078"/>
      <use xlink:href="#DejaVuSans-65" x="229.931641"/>
      <use xlink:href="#DejaVuSans-6e" x="291.455078"/>
      <use xlink:href="#DejaVuSans-20" x="354.833984"/>
      <use xlink:href="#DejaVuSans-73" x="386.621094"/>
      <use xlink:href="#DejaVuSans-69" x="438.720703"/>
      <use xlink:href="#DejaVuSans-7a" x="466.503906"/>
      <use xlink:href="#DejaVuSans-65" x="518.994141"/>
      <use xlink:href="#DejaVuSans-3a" x="580.517578"/>
      <use xlink:href="#DejaVuSans-20" x="614.208984"/>
      <use xlink:href="#DejaVuSans-34" x="645.996094"/>
     </g>
    </g>
    <g id="line2d_29">
     <path d="M 294.0325 113.282938 
L 304.0325 113.282938 
L 314.0325 113.282938 
" style="fill: none; stroke: #9467bd; stroke-width: 1.5; stroke-linecap: square"/>
    </g>
    <g id="text_20">
     <!-- Hidden size: 5 -->
     <g transform="translate(322.0325 116.782938) scale(0.1 -0.1)">
      <use xlink:href="#DejaVuSans-48"/>
      <use xlink:href="#DejaVuSans-69" x="75.195312"/>
      <use xlink:href="#DejaVuSans-64" x="102.978516"/>
      <use xlink:href="#DejaVuSans-64" x="166.455078"/>
      <use xlink:href="#DejaVuSans-65" x="229.931641"/>
      <use xlink:href="#DejaVuSans-6e" x="291.455078"/>
      <use xlink:href="#DejaVuSans-20" x="354.833984"/>
      <use xlink:href="#DejaVuSans-73" x="386.621094"/>
      <use xlink:href="#DejaVuSans-69" x="438.720703"/>
      <use xlink:href="#DejaVuSans-7a" x="466.503906"/>
      <use xlink:href="#DejaVuSans-65" x="518.994141"/>
      <use xlink:href="#DejaVuSans-3a" x="580.517578"/>
      <use xlink:href="#DejaVuSans-20" x="614.208984"/>
      <use xlink:href="#DejaVuSans-35" x="645.996094"/>
     </g>
    </g>
    <g id="line2d_30">
     <path d="M 294.0325 127.961062 
L 304.0325 127.961062 
L 314.0325 127.961062 
" style="fill: none; stroke: #8c564b; stroke-width: 1.5; stroke-linecap: square"/>
    </g>
    <g id="text_21">
     <!-- Hidden size: 10 -->
     <g transform="translate(322.0325 131.461062) scale(0.1 -0.1)">
      <use xlink:href="#DejaVuSans-48"/>
      <use xlink:href="#DejaVuSans-69" x="75.195312"/>
      <use xlink:href="#DejaVuSans-64" x="102.978516"/>
      <use xlink:href="#DejaVuSans-64" x="166.455078"/>
      <use xlink:href="#DejaVuSans-65" x="229.931641"/>
      <use xlink:href="#DejaVuSans-6e" x="291.455078"/>
      <use xlink:href="#DejaVuSans-20" x="354.833984"/>
      <use xlink:href="#DejaVuSans-73" x="386.621094"/>
      <use xlink:href="#DejaVuSans-69" x="438.720703"/>
      <use xlink:href="#DejaVuSans-7a" x="466.503906"/>
      <use xlink:href="#DejaVuSans-65" x="518.994141"/>
      <use xlink:href="#DejaVuSans-3a" x="580.517578"/>
      <use xlink:href="#DejaVuSans-20" x="614.208984"/>
      <use xlink:href="#DejaVuSans-31" x="645.996094"/>
      <use xlink:href="#DejaVuSans-30" x="709.619141"/>
     </g>
    </g>
    <g id="line2d_31">
     <path d="M 294.0325 142.639187 
L 304.0325 142.639187 
L 314.0325 142.639187 
" style="fill: none; stroke: #e377c2; stroke-width: 1.5; stroke-linecap: square"/>
    </g>
    <g id="text_22">
     <!-- Hidden size: 20 -->
     <g transform="translate(322.0325 146.139187) scale(0.1 -0.1)">
      <use xlink:href="#DejaVuSans-48"/>
      <use xlink:href="#DejaVuSans-69" x="75.195312"/>
      <use xlink:href="#DejaVuSans-64" x="102.978516"/>
      <use xlink:href="#DejaVuSans-64" x="166.455078"/>
      <use xlink:href="#DejaVuSans-65" x="229.931641"/>
      <use xlink:href="#DejaVuSans-6e" x="291.455078"/>
      <use xlink:href="#DejaVuSans-20" x="354.833984"/>
      <use xlink:href="#DejaVuSans-73" x="386.621094"/>
      <use xlink:href="#DejaVuSans-69" x="438.720703"/>
      <use xlink:href="#DejaVuSans-7a" x="466.503906"/>
      <use xlink:href="#DejaVuSans-65" x="518.994141"/>
      <use xlink:href="#DejaVuSans-3a" x="580.517578"/>
      <use xlink:href="#DejaVuSans-20" x="614.208984"/>
      <use xlink:href="#DejaVuSans-32" x="645.996094"/>
      <use xlink:href="#DejaVuSans-30" x="709.619141"/>
     </g>
    </g>
    <g id="line2d_32">
     <path d="M 294.0325 157.317312 
L 304.0325 157.317312 
L 314.0325 157.317312 
" style="fill: none; stroke: #7f7f7f; stroke-width: 1.5; stroke-linecap: square"/>
    </g>
    <g id="text_23">
     <!-- Hidden size: 50 -->
     <g transform="translate(322.0325 160.817312) scale(0.1 -0.1)">
      <use xlink:href="#DejaVuSans-48"/>
      <use xlink:href="#DejaVuSans-69" x="75.195312"/>
      <use xlink:href="#DejaVuSans-64" x="102.978516"/>
      <use xlink:href="#DejaVuSans-64" x="166.455078"/>
      <use xlink:href="#DejaVuSans-65" x="229.931641"/>
      <use xlink:href="#DejaVuSans-6e" x="291.455078"/>
      <use xlink:href="#DejaVuSans-20" x="354.833984"/>
      <use xlink:href="#DejaVuSans-73" x="386.621094"/>
      <use xlink:href="#DejaVuSans-69" x="438.720703"/>
      <use xlink:href="#DejaVuSans-7a" x="466.503906"/>
      <use xlink:href="#DejaVuSans-65" x="518.994141"/>
      <use xlink:href="#DejaVuSans-3a" x="580.517578"/>
      <use xlink:href="#DejaVuSans-20" x="614.208984"/>
      <use xlink:href="#DejaVuSans-35" x="645.996094"/>
      <use xlink:href="#DejaVuSans-30" x="709.619141"/>
     </g>
    </g>
    <g id="line2d_33">
     <path d="M 294.0325 171.995437 
L 304.0325 171.995437 
L 314.0325 171.995437 
" style="fill: none; stroke: #bcbd22; stroke-width: 1.5; stroke-linecap: square"/>
    </g>
    <g id="text_24">
     <!-- Hidden size: 100 -->
     <g transform="translate(322.0325 175.495437) scale(0.1 -0.1)">
      <use xlink:href="#DejaVuSans-48"/>
      <use xlink:href="#DejaVuSans-69" x="75.195312"/>
      <use xlink:href="#DejaVuSans-64" x="102.978516"/>
      <use xlink:href="#DejaVuSans-64" x="166.455078"/>
      <use xlink:href="#DejaVuSans-65" x="229.931641"/>
      <use xlink:href="#DejaVuSans-6e" x="291.455078"/>
      <use xlink:href="#DejaVuSans-20" x="354.833984"/>
      <use xlink:href="#DejaVuSans-73" x="386.621094"/>
      <use xlink:href="#DejaVuSans-69" x="438.720703"/>
      <use xlink:href="#DejaVuSans-7a" x="466.503906"/>
      <use xlink:href="#DejaVuSans-65" x="518.994141"/>
      <use xlink:href="#DejaVuSans-3a" x="580.517578"/>
      <use xlink:href="#DejaVuSans-20" x="614.208984"/>
      <use xlink:href="#DejaVuSans-31" x="645.996094"/>
      <use xlink:href="#DejaVuSans-30" x="709.619141"/>
      <use xlink:href="#DejaVuSans-30" x="773.242188"/>
     </g>
    </g>
    <g id="line2d_34">
     <path d="M 294.0325 186.673562 
L 304.0325 186.673562 
L 314.0325 186.673562 
" style="fill: none; stroke: #17becf; stroke-width: 1.5; stroke-linecap: square"/>
    </g>
    <g id="text_25">
     <!-- Hidden size: 200 -->
     <g transform="translate(322.0325 190.173562) scale(0.1 -0.1)">
      <use xlink:href="#DejaVuSans-48"/>
      <use xlink:href="#DejaVuSans-69" x="75.195312"/>
      <use xlink:href="#DejaVuSans-64" x="102.978516"/>
      <use xlink:href="#DejaVuSans-64" x="166.455078"/>
      <use xlink:href="#DejaVuSans-65" x="229.931641"/>
      <use xlink:href="#DejaVuSans-6e" x="291.455078"/>
      <use xlink:href="#DejaVuSans-20" x="354.833984"/>
      <use xlink:href="#DejaVuSans-73" x="386.621094"/>
      <use xlink:href="#DejaVuSans-69" x="438.720703"/>
      <use xlink:href="#DejaVuSans-7a" x="466.503906"/>
      <use xlink:href="#DejaVuSans-65" x="518.994141"/>
      <use xlink:href="#DejaVuSans-3a" x="580.517578"/>
      <use xlink:href="#DejaVuSans-20" x="614.208984"/>
      <use xlink:href="#DejaVuSans-32" x="645.996094"/>
      <use xlink:href="#DejaVuSans-30" x="709.619141"/>
      <use xlink:href="#DejaVuSans-30" x="773.242188"/>
     </g>
    </g>
   </g>
  </g>
 </g>
 <defs>
  <clipPath id="pafa8be8f41">
   <rect x="57.6" y="41.472" width="357.12" height="266.112"/>
  </clipPath>
 </defs>
</svg>
